<svg xmlns="http://www.w3.org/2000/svg" viewBox="0 0 139.81 91.89"><g id="Layer_2" data-name="Layer 2"><g id="Layer_1-2" data-name="Layer 1"><path d="M60.65,74.7c24.46,0,50.11-4.39,59.85-12.65a31.54,31.54,0,0,1-9.19,16.61C101,88.18,86.8,91.89,60.66,91.89S20.32,88.18,10,78.66A31.6,31.6,0,0,1,.82,62.07C10.57,70.32,36.21,74.7,60.65,74.7Zm43.86-31.45c-1-.31-2.12-.61-3.23-.9a127.16,127.16,0,0,0-14.89-2.89q-1.76-.24-3.57-.45a194,194,0,0,0-22.17-1.22C24.94,37.79.05,46.63,0,54.58c0,0,0,.07,0,.1C.07,58,4.32,61.36,11.78,64.24c2.4-3.4,12-11.33,48.87-11.33s46.48,7.93,48.88,11.33c7.52-2.9,11.78-6.35,11.78-9.64C121.31,50.64,115.13,46.46,104.51,43.25Zm1.7,22.18c-2.72-2.79-12.56-9.25-45.56-9.25S17.82,62.63,15.1,65.43c10.76,3.51,26.64,6,45.55,6S95.45,68.94,106.21,65.43Zm33.14-64A4.43,4.43,0,0,0,136,0c-6.2-.4-17.74,4.76-29.58,15.29C93.55,26.75,88.33,36.42,88.33,36.42a128.76,128.76,0,0,1,14.5,2.87s3.44-6.89,12.13-16a87.19,87.19,0,0,1,15-12.14c4.88-3.22,9.48-6.25,9.83-8.41A1.57,1.57,0,0,0,139.35,1.42Z" fill="currentColor"/></g></g></svg>
