<svg xmlns="http://www.w3.org/2000/svg" width="22.295" height="19.036" viewBox="0 0 22.295 19.036">
  <path id="basket" d="M21.6,4.23h-4.55l1.415-2.82H20.2a.666.666,0,0,0,.49-.209.682.682,0,0,0,.207-.5.682.682,0,0,0-.207-.5A.666.666,0,0,0,20.2,0H17.418L15.263,4.23H7.076L4.877,0H2.09A.666.666,0,0,0,1.6.209a.682.682,0,0,0-.207.5.682.682,0,0,0,.207.5.666.666,0,0,0,.49.209H3.832l1.5,2.82H.7a.666.666,0,0,0-.49.209.7.7,0,0,0,0,.991A.666.666,0,0,0,.7,5.64h.7l.7,9.871A2.733,2.733,0,0,0,2.907,17.5a2.669,2.669,0,0,0,1.97.826H16.721a2.669,2.669,0,0,0,1.97-.826,2.733,2.733,0,0,0,.816-1.994L20.9,5.64h.7a.666.666,0,0,0,.49-.209.7.7,0,0,0,0-.991A.666.666,0,0,0,21.6,4.23ZM6.967,16.921H4.877A1.331,1.331,0,0,1,3.9,16.5a1.363,1.363,0,0,1-.414-.991L3.375,14.1H6.967Zm0-4.23H3.288l-.2-2.82H6.967Zm0-4.23H2.983l-.2-2.82h4.18Zm6.967,8.46H8.361V14.1h5.574Zm0-4.23H8.361V9.871h5.574Zm0-4.23H8.361V5.64h5.574Zm4.18,7.05a1.363,1.363,0,0,1-.414.991,1.331,1.331,0,0,1-.98.419H15.328V14.1h2.983Zm.392-2.82H15.328V9.871H18.92Zm.61-4.23H15.328V5.64h4.18ZM22.3,19.036" fill="currentColor"/>
</svg>
