<svg xmlns="http://www.w3.org/2000/svg" viewBox="0 0 136.11 106.61"><g id="Layer_2" data-name="Layer 2"><g id="Layer_1-2" data-name="Layer 1"><path d="M136,51a6.94,6.94,0,0,0-8.11-5.51l-10,1.91V37.49a1,1,0,0,0-1-1H19.19a1,1,0,0,0-1,1v9.93l-10-1.91a6.93,6.93,0,0,0-2.6,13.62l12.6,2.39V74.67c0,11.53,1.62,18.85,10.49,26.91,3.47,3.15,11.25,5,20.82,5h37c9.57,0,17.35-1.88,20.82-5,8.86-8.06,10.49-15.38,10.49-26.91V61.52l12.59-2.39A7,7,0,0,0,136,51Zm-94.5,49.47a.32.32,0,0,1-.29.18h-.08c-3-.76-4.7-1.26-7-3.26-8.27-7.13-9.78-14.07-9.78-25.16V44.1a.31.31,0,0,1,.31-.32h5.56a.32.32,0,0,1,.32.32V74.75c0,11.65,2.53,17.87,10,24.69a7.79,7.79,0,0,0,.84.65A.33.33,0,0,1,41.49,100.49Zm-20-70.24h93.23a1.92,1.92,0,0,0,1.24-3.38c-4.42-3.72-13.86-6.66-25.75-8.31-1-.72-1.83-2.2-3.27-5.14C84.28,8.08,80.33,0,68.05,0S51.83,8.08,49.22,13.42c-1.44,2.94-2.32,4.42-3.27,5.14-11.89,1.65-21.33,4.59-25.75,8.31A1.93,1.93,0,0,0,19.64,29,1.91,1.91,0,0,0,21.44,30.25ZM56.66,17.06C59.15,12,61,8.28,68.05,8.28S77,12,79.45,17.06l.22.44c-3.75-.25-7.64-.38-11.62-.38s-7.86.13-11.61.38Z" fill="currentColor"/></g></g></svg>
