<svg xmlns="http://www.w3.org/2000/svg" viewBox="0 0 158.79 22.25"><g id="Layer_2" data-name="Layer 2"><g id="Layer_1-2" data-name="Layer 1"><path d="M55.63,22.24A11.12,11.12,0,1,0,44.51,11.12,11.12,11.12,0,0,0,55.63,22.24" style="fill:#ed1b2f"/><path d="M84.46.08A14.66,14.66,0,0,0,71.7,7.7s-.31.6-.36.71-3.29,6.78-4.65,8.93h0a13.38,13.38,0,0,1-5.08,4.9h82.91a3.16,3.16,0,0,0,2.61-1.48L158.79.08Z" style="fill:#ed1b2f"/><path d="M44.41,5A13.47,13.47,0,0,1,49.5.08H0V22.25H26.64A14.63,14.63,0,0,0,39.4,14.63s.32-.6.36-.7S43.06,7.14,44.41,5h0" style="fill:#ed1b2f"/><path d="M58,14.25l-1.05-7h0a2.13,2.13,0,0,0-2.1-1.8A2.1,2.1,0,0,0,52.7,7.58a2.6,2.6,0,0,0,0,.4l1.05,6.92A2.11,2.11,0,0,0,58,14.64a2.47,2.47,0,0,0,0-.39" style="fill:#fff"/><path d="M52.49,10.33l-1.15,3.93A2.87,2.87,0,0,1,49.54,16a2.06,2.06,0,0,0,.62-1.48A2.09,2.09,0,1,0,47,16.28l.37.18a3.68,3.68,0,0,0,3-.08,3.69,3.69,0,0,0,1.91-2.17l.52-1.81Z" style="fill:#fff"/><path d="M58.38,12.91l1.49-5a2.75,2.75,0,0,1,1.79-1.68,2.07,2.07,0,1,0,2.58-.34,2.64,2.64,0,0,0-.38-.18,3.72,3.72,0,0,0-1.43-.29,3.58,3.58,0,0,0-1.6.37A3.69,3.69,0,0,0,58.92,8l-.85,2.84Z" style="fill:#fff"/><path d="M123.78,5.47V6.94h.76a.53.53,0,0,0,.33-.53V5.47Z" style="fill:#fff"/><path d="M125.29,5.47V6.94h.76a.56.56,0,0,0,.33-.53V5.47Z" style="fill:#fff"/><path d="M140.07,5.76h6.83s.79,0,.79,1.26c0,5.69-2.34,9.67-7.2,9.75V14.62s5.36.17,5.36-7.11h-5.78Z" style="fill:#fff"/><path d="M139.8,12.16c.33,0,.59-.39.59-.87V10.23h-5.15v1.92Z" style="fill:#fff"/><path d="M127,5.47l-.56,11.29h1a1,1,0,0,0,.7-.91l.44-10.38Z" style="fill:#fff"/><path d="M122.65,5.75H117.3l-1.6,5.81h1.72l1.07-4h3.23c0,7.57-3.79,7.07-5.61,7.07,0,.44,0,1.84,0,2.15,5.65.42,7.4-3.42,7.39-9.74,0-1.25-.85-1.27-.85-1.27" style="fill:#fff"/><path d="M132.89,8c0,3.37-.32,5.48-1.69,6.1V5.47h-1.7v11.3a5.06,5.06,0,0,0,1.71-.31c2.38-.87,3.33-3.72,3.33-8.45Z" style="fill:#fff"/><path d="M149.19,5.13c-.6,0-1.09.73-1.09,1.63s.49,1.64,1.09,1.64,1.09-.73,1.09-1.64-.49-1.63-1.09-1.63m0,2.52c-.33,0-.59-.4-.59-.89s.26-.89.59-.89.6.4.6.89-.27.89-.6.89" style="fill:#fff"/><path d="M77.5,16.76c-.44,0-.8-.51-.8-1.15v-9c0-.64.36-1.16.8-1.16H84c.44,0,.8.52.8,1.16v9c0,.64-.36,1.15-.8,1.15Zm1-5.08h3.57c.33,0,.59-.39.59-.87V10H78.5m0,1.7v3.24H83V7.15H78.5V10" style="fill:#fff"/><path d="M86.23,5.46v2H88c.33,0,.6-.39.6-.87V5.46Z" style="fill:#fff"/><path d="M86.23,8.33v2H88c.33,0,.6-.39.6-.87V8.33Z" style="fill:#fff"/><path d="M88.72,11H86.94l-.89,5.81h1.3c.45,0,.61-.48.7-1,.12-.74.67-4.79.67-4.79" style="fill:#fff"/><polygon points="94.57 6.81 94.57 5.89 92.7 5.89 92.7 5.09 90.91 5.09 90.91 5.89 88.98 5.89 88.98 6.81 90.91 6.81 90.91 7.57 88.98 7.57 88.98 8.49 90.91 8.49 90.91 9.31 88.98 9.31 88.98 10.35 94.57 10.35 94.57 9.31 92.7 9.31 92.7 8.49 94.57 8.49 94.57 7.57 92.7 7.57 92.7 6.81 94.57 6.81" style="fill:#fff"/><path d="M94.57,11v5.8H92.86V15.31H90.68v.58c0,.48-.26.87-.59.87H89V11Zm-3.89,1.63h2.18v-.64H90.68Zm0,1.73h2.18v-.76H90.68Z" style="fill:#fff"/><polygon points="104.59 9.21 104.59 9.2 104.59 9.22 104.59 9.21" style="fill:#fff"/><rect x="101.35" y="5.26" width="1.3" height="4.67" style="fill:#fff"/><path d="M103.14,5.26V10.4h.64c.44,0,.81-.53.81-1.18v-4Z" style="fill:#fff"/><path d="M101,9.79a.83.83,0,0,0-.56-.81H99.21V8.23h1.72V7.34H99.21V6.67h1.72V5.78h-1.7V5.26H97.69v.52h-.56l.15-.52h-.91L96,6.67h1.7v.67H96.1v.89h1.59V9H96.1v1.45h1.07V9.87h.52v.57h1.4V9.87h.51V11H96.1v1.19h1.63l-1.64,2.28v2.35l1.54-2.2v1.2c0,.46.25,1,.7,1h2.06a.77.77,0,0,0,.49-.73v-1H99.26V12.16l3,4.35a.75.75,0,0,0,.49.26h2l-1.65-2.19,1.46-1.89H103l-.69.83-1-1.38h3.36v-1.2H101Z" style="fill:#fff"/><path d="M108.77,9.78V5.26h-1.42V9.78h-1.56V11h1.56l-1.55,3.09v2.68l1.55-3.1v3.12h1.42V13.12l1,1.63V12.48L108.83,11h2.1l-1.55,5.79h1.19a.88.88,0,0,0,.61-.58L112.5,11h.6v4h-1.27v1c0,.45.29.8.6.8H114a1.09,1.09,0,0,0,.65-1v-6h-5.9Z" style="fill:#fff"/><polygon points="111.44 9.09 112.07 6.75 112.63 6.75 113.1 9.06 114.79 9.06 113.69 5.26 111.28 5.26 110.11 9.09 111.44 9.09" style="fill:#fff"/><path d="M109.49,9.11a.72.72,0,0,0,.54-.6l.4-2.84h-1.15L109,9.11h.54" style="fill:#fff"/><path d="M106.08,8.57a.71.71,0,0,0,.49.54h.6l-.33-3.44h-1.15l.39,2.9" style="fill:#fff"/></g></g></svg>
