<svg xmlns="http://www.w3.org/2000/svg" viewBox="0 0 35 38.6">
<path d="M25.5,11.3c2.2,3.3,2.2,7.5,0,10.8l0,0c-0.1,0.2-0.3,0.4-0.4,0.6l0,0c-1,1.4-2,3.3-2,4.2c0,0.7-0.5,1.2-1.2,1.2
	c-0.7,0-1.2-0.5-1.2-1.2c0-2.2,2.4-5.5,2.9-6.2c2.2-3.3,1.3-7.9-2-10.1c-3.3-2.2-7.9-1.3-10.1,2c-1.6,2.5-1.6,5.6,0,8.1
	c0.6,0.7,2.9,4,2.9,6.2c0,0.7-0.5,1.2-1.2,1.2l0,0c-0.7,0-1.2-0.5-1.2-1.2c0-0.9-1.1-2.8-2-4.2l0,0c-0.2-0.2-0.3-0.4-0.4-0.6
	c0,0,0,0,0-0.1c-3-4.4-1.8-10.5,2.7-13.4C16.6,5.6,22.6,6.8,25.5,11.3z M22.5,30.2v3.3c0,2.8-2.2,5.1-5,5.1h0c-2.8,0-5-2.3-5-5.1
	c0,0,0,0,0,0v-3.3c0-0.7,0.5-1.2,1.2-1.2h7.6C22,29,22.5,29.6,22.5,30.2z M20.1,31.4h-5.2v2.1c0,0,0,0,0,0c0,1.4,1.2,2.6,2.6,2.6
	c1.4,0,2.6-1.2,2.6-2.6c0,0,0,0,0,0V31.4z M17.5,4.3c0.4,0,0.7-0.3,0.7-0.7V0.8c0-0.4-0.3-0.8-0.8-0.8c-0.4,0-0.8,0.3-0.8,0.8v2.8
	C16.7,4,17.1,4.3,17.5,4.3z M9.9,5.8C10,6,10.1,6.1,10.3,6.2c0.1,0,0.1,0,0.2,0c0.4,0,0.8-0.3,0.8-0.8c0-0.1,0-0.3-0.1-0.4L9.8,2.6
	C9.6,2.3,9.1,2.1,8.7,2.4C8.4,2.6,8.3,3,8.5,3.4L9.9,5.8z M24.1,6.1c0.4,0.2,0.8,0.1,1-0.3l1.4-2.4c0.2-0.4,0.1-0.8-0.3-1v0
	c-0.4-0.2-0.8-0.1-1,0.3l-1.4,2.4C23.6,5.4,23.7,5.9,24.1,6.1z M2.6,9.8l2.4,1.4c0.4,0.2,0.8,0.1,1-0.3c0.2-0.4,0.1-0.8-0.3-1h0
	L3.4,8.5C3,8.3,2.5,8.4,2.3,8.8C2.1,9.1,2.3,9.6,2.6,9.8z M29.6,11.3L29.6,11.3c0.1,0,0.3,0,0.4-0.1l2.4-1.4c0.4-0.2,0.5-0.7,0.3-1
	s-0.7-0.5-1-0.3c0,0,0,0,0,0l-2.4,1.4c-0.4,0.2-0.5,0.7-0.3,1C29,11.2,29.3,11.3,29.6,11.3z M4.3,17.5c0-0.4-0.3-0.8-0.8-0.8H0.8
	c-0.4,0-0.8,0.4-0.7,0.8c0,0.4,0.3,0.7,0.7,0.7h2.8C4,18.3,4.3,17.9,4.3,17.5z M4.3,17.5C4.3,17.5,4.3,17.5,4.3,17.5
	C4.3,17.5,4.3,17.5,4.3,17.5L4.3,17.5z M34.3,16.7C34.3,16.7,34.3,16.7,34.3,16.7h-2.9c-0.4,0-0.8,0.3-0.8,0.7s0.3,0.8,0.7,0.8
	c0,0,0,0,0.1,0h2.8c0.4,0,0.8-0.3,0.8-0.7S34.7,16.7,34.3,16.7z M5.1,23.8C5.1,23.8,5.1,23.8,5.1,23.8l-2.5,1.4
	c-0.4,0.2-0.5,0.7-0.3,1.1c0.2,0.3,0.7,0.5,1,0.3l2.4-1.4c0.4-0.2,0.5-0.7,0.3-1S5.5,23.6,5.1,23.8z M32.4,25.2L32.4,25.2l-2.4-1.4
	c-0.4-0.2-0.8-0.1-1,0.3c-0.2,0.4-0.1,0.8,0.3,1l2.4,1.4c0.1,0.1,0.2,0.1,0.4,0.1c0.1,0,0.1,0,0.2,0c0.4-0.1,0.6-0.5,0.5-0.9
	C32.7,25.5,32.5,25.3,32.4,25.2z" fill="currentColor"/>
</svg>
