<svg xmlns="http://www.w3.org/2000/svg" width="24.524" height="24.135" viewBox="0 0 24.524 24.135">
  <path id="check" d="M20.583,3.552a11.512,11.512,0,0,1,3.552,8.515,11.632,11.632,0,0,1-3.528,8.54,11.632,11.632,0,0,1-8.54,3.528,11.632,11.632,0,0,1-8.54-3.528A11.632,11.632,0,0,1,0,12.068a11.632,11.632,0,0,1,3.528-8.54A11.632,11.632,0,0,1,12.068,0,11.512,11.512,0,0,1,20.583,3.552Zm-9.927,14.89L19.61,9.489a.637.637,0,0,0,0-1.071L18.539,7.3a.719.719,0,0,0-1.119,0l-7.3,7.3L6.715,11.192a.719.719,0,0,0-1.119,0L4.525,12.311a.637.637,0,0,0,0,1.071l5.061,5.061A.637.637,0,0,0,10.656,18.442ZM24.524,21.41" fill="currentColor"/>
</svg>
