<svg xmlns="http://www.w3.org/2000/svg" width="20.272" height="23.168" viewBox="0 0 20.272 23.168">
  <path id="building" d="M5.792,6.7V4.887a.48.48,0,0,1,.543-.543h1.81a.48.48,0,0,1,.543.543V6.7a.48.48,0,0,1-.543.543H6.335A.48.48,0,0,1,5.792,6.7Zm6.335.543a.48.48,0,0,1-.543-.543V4.887a.48.48,0,0,1,.543-.543h1.81a.48.48,0,0,1,.543.543V6.7a.48.48,0,0,1-.543.543ZM6.335,11.584a.48.48,0,0,1-.543-.543V9.231a.48.48,0,0,1,.543-.543h1.81a.48.48,0,0,1,.543.543v1.81a.48.48,0,0,1-.543.543Zm5.792,0a.48.48,0,0,1-.543-.543V9.231a.48.48,0,0,1,.543-.543h1.81a.48.48,0,0,1,.543.543v1.81a.48.48,0,0,1-.543.543Zm-3.439,3.8a.48.48,0,0,1-.543.543H6.335a.48.48,0,0,1-.543-.543v-1.81a.48.48,0,0,1,.543-.543h1.81a.48.48,0,0,1,.543.543Zm3.439.543a.48.48,0,0,1-.543-.543v-1.81a.48.48,0,0,1,.543-.543h1.81a.48.48,0,0,1,.543.543v1.81a.48.48,0,0,1-.543.543Zm8.145,5.611v1.629H0V21.539A.48.48,0,0,1,.543,21h.905V1.086A1.047,1.047,0,0,1,1.765.317,1.047,1.047,0,0,1,2.534,0h15.2a1.047,1.047,0,0,1,.769.317,1.047,1.047,0,0,1,.317.769V21h.905A.48.48,0,0,1,20.272,21.539ZM3.62,20.951H8.688V17.919a.48.48,0,0,1,.543-.543h1.81a.48.48,0,0,1,.543.543v3.032h5.068V2.217L3.62,2.172Zm16.652-.679" fill="currentColor"/>
</svg>
