<svg xmlns="http://www.w3.org/2000/svg" xmlns:xlink="http://www.w3.org/1999/xlink" width="22.116" height="20.122" viewBox="0 0 22.116 20.122">
  <defs>
    <clipPath id="clip-path">
      <rect id="Rectangle_926" data-name="Rectangle 926" width="22.116" height="20.122" transform="translate(0 0)" fill="none"/>
    </clipPath>
  </defs>
  <g id="foodie" transform="translate(0 0.001)">
    <g id="Group_790" data-name="Group 790" transform="translate(0 -0.001)" clip-path="url(#clip-path)">
      <path id="Path_1039" data-name="Path 1039" d="M22.117,2.952a3.259,3.259,0,0,1-.29.616c-.59.785-1.176,1.575-1.809,2.324-.751.888-1.558,1.728-2.325,2.6a2.955,2.955,0,0,1-3.505.784.231.231,0,0,0-.319.072c-.522.593-1.051,1.181-1.608,1.8.108.1.209.2.312.3l6.351,5.911a1.738,1.738,0,0,1,.631,1.051,1.452,1.452,0,0,1-.768,1.5,1.408,1.408,0,0,1-1.664-.227c-.485-.473-.95-.967-1.406-1.469q-2.28-2.508-4.547-5.028c-.1-.109-.2-.216-.32-.349-.443.484-.869.961-1.306,1.426Q7.025,16.948,4.5,19.62a1.473,1.473,0,0,1-2.121.1,1.448,1.448,0,0,1,.048-2.143c1.853-1.74,3.724-3.46,5.59-5.186.406-.375.822-.74,1.251-1.125-.062-.079-.112-.149-.169-.213-.5-.555-1-1.107-1.5-1.663-.094-.106-.173-.192-.341-.124a3.593,3.593,0,0,1-3.048-.205A7.46,7.46,0,0,1,.091,4.01,4.061,4.061,0,0,1,.046,2.536,2.312,2.312,0,0,1,2.285.508a4.955,4.955,0,0,1,2.706.617,7.571,7.571,0,0,1,3.761,4.1,3.538,3.538,0,0,1,.016,2.553.3.3,0,0,0,.031.261c.662.611,1.335,1.212,2.026,1.833L12.8,8.107a10.974,10.974,0,0,1-.279-1.339A2.585,2.585,0,0,1,13.3,4.641,41.877,41.877,0,0,1,18.114.423a4.09,4.09,0,0,1,.706-.4.4.4,0,0,1,.335.024c.049.032.043.215,0,.3a2.548,2.548,0,0,1-.378.636c-.84.914-1.7,1.813-2.55,2.713-.171.18-.364.339-.543.511-.332.319-.414.712-.2.92s.6.13.922-.208c.526-.544,1.036-1.105,1.581-1.629s1.1-1,1.673-1.482a2.485,2.485,0,0,1,.675-.378c.231-.092.369.035.293.271a1.682,1.682,0,0,1-.313.592q-1.087,1.23-2.209,2.429c-.3.321-.648.6-.952.916a1.326,1.326,0,0,0-.312.507.389.389,0,0,0,.508.514,1.624,1.624,0,0,0,.582-.38c.877-.831,1.733-1.684,2.615-2.511a7.933,7.933,0,0,1,.969-.737A2.257,2.257,0,0,1,22,2.848l.113.1" transform="translate(0 0)" fill="currentColor"/>
    </g>
  </g>
</svg>
