<svg xmlns="http://www.w3.org/2000/svg" viewBox="0 0 157.34 84.97"><g id="Layer_2" data-name="Layer 2"><g id="Layer_1-2" data-name="Layer 1"><path d="M148.42,20.59l-12.66,1a3.74,3.74,0,0,1,.72,1.52,7.22,7.22,0,0,1,.17,2.92l10.85-1L151,31.44,136.41,32.6V28.82c0,9.52-25.75,17.23-57.53,17.23S21.35,38.34,21.35,28.82v2.76l-20.63,2s-1,.57-.65,1.46S3.85,45.43,4.94,48.27A1,1,0,0,0,6,49l15.35-2V67.73C21.35,77.25,47.11,85,78.88,85s57.53-7.72,57.53-17.24V37.33s18.86-1.5,20-1.72c1.33-.25.82-1.91.82-1.91l-7-12.48A2.52,2.52,0,0,0,148.42,20.59ZM21.35,42.38,8.55,44.06,6,36.69,21.35,35Zm4.1-38.87a1.09,1.09,0,0,0-.07.35V3.51Zm29.07,0v.35a1.09,1.09,0,0,0-.07-.35ZM68.71,12c-.13-.8-.27-1.59-.4-2.39a165.84,165.84,0,0,1,21.15,0c-.14.8-.27,1.59-.41,2.39A156.88,156.88,0,0,0,68.71,12Zm.56,3.27a150.32,150.32,0,0,1,19.22,0c-.13.79-.27,1.59-.4,2.38a145,145,0,0,0-18.41,0C69.54,16.9,69.41,16.1,69.27,15.31Zm40,5.36A145,145,0,0,0,91,17.91l.54-2.37a150.42,150.42,0,0,1,19.06,2.88Zm3.17-5.34a156.74,156.74,0,0,0-20.16-3.05c.18-.79.36-1.58.53-2.37a162.07,162.07,0,0,1,21,3.17C113.35,13.83,112.9,14.58,112.45,15.33Zm-88.73,9c0,8.33,24.7,16.22,55.16,16.22s55.17-7.89,55.17-16.22c0-4.24-6.41-8.07-16.71-10.81l-.24.37c-.48.74-1,1.48-1.46,2.22l-2,3.05-1.47,2.22-2,3.06c-.9-.22-1.8-.42-2.71-.62a135,135,0,0,0-17.15-2.6L87.53,21a131.41,131.41,0,0,0-17.3,0l-2.75.2a134.89,134.89,0,0,0-17.16,2.6c-.9.2-1.8.4-2.71.62l-2-3.06-1.46-2.22c-.54-.81-1.07-1.62-1.6-2.43,5.84-.28,10.48-1.48,11.68-3q5.61-.9,11.25-1.39c-.17-.79-.35-1.58-.53-2.37-3.48.29-7,.71-10.42,1.23V3.86C54.52,1.73,48,0,40,0S25.38,1.73,25.38,3.86v9c0,1.4,2.81,2.62,7,3.3C26.91,18.52,23.72,21.3,23.72,24.28ZM54.36,4.4c0-.06.07-.11.09-.16S54.39,4.34,54.36,4.4Zm-.12.2c-.05.07-.12.14-.18.21S54.19,4.67,54.24,4.6Zm-.62.58a2.37,2.37,0,0,0,.3-.23A2.37,2.37,0,0,1,53.62,5.18ZM40,3.59c5.95,0,10.78,1.27,10.86,2.84l.8-.26A37.66,37.66,0,0,1,40,7.72,37.66,37.66,0,0,1,28.29,6.17l.8.26C29.17,4.86,34,3.59,40,3.59ZM53.07,5.53a3.18,3.18,0,0,0,.41-.25A3.18,3.18,0,0,1,53.07,5.53ZM53,5.6l-.55.26Zm-.63.29-.67.27ZM25.45,4.24s.06.1.09.16S25.47,4.29,25.45,4.24Zm.39.57c-.06-.07-.13-.14-.18-.21S25.78,4.74,25.84,4.81Zm.44.37A2.37,2.37,0,0,1,26,5,2.37,2.37,0,0,0,26.28,5.18Zm2,1-.68-.27Zm-.75-.3L27,5.6Zm-1.08-.58a3.18,3.18,0,0,0,.41.25A3.18,3.18,0,0,1,26.42,5.28ZM40,16.74c.65,0,1.28,0,1.91,0V31.5c0,.35-.85.63-1.91.63S38,31.85,38,31.5V16.71C38.66,16.73,39.3,16.74,40,16.74Zm7.2,1.68a150.15,150.15,0,0,1,19.06-2.88c.18.79.35,1.58.53,2.37a144.87,144.87,0,0,0-18.25,2.76Z" fill="currentColor"/></g></g></svg>
