<svg xmlns="http://www.w3.org/2000/svg" width="24.496" height="24.496" viewBox="0 0 24.496 24.496">
  <path id="information_black" data-name="information black" d="M0,12.248A11.981,11.981,0,0,1,.97,7.483,12.04,12.04,0,0,1,7.483.97a12.179,12.179,0,0,1,9.524,0,12.024,12.024,0,0,1,6.52,6.513,12.179,12.179,0,0,1,0,9.524,12.008,12.008,0,0,1-6.52,6.52,12.179,12.179,0,0,1-9.524,0A12.024,12.024,0,0,1,.97,17.007,12,12,0,0,1,0,12.248Zm10.411-4.44a1.522,1.522,0,0,0,.5,1.2,1.936,1.936,0,0,0,1.333.447,1.931,1.931,0,0,0,1.34-.447,1.532,1.532,0,0,0,.5-1.2,1.512,1.512,0,0,0-.5-1.193,1.949,1.949,0,0,0-1.34-.44,1.936,1.936,0,0,0-1.333.447A1.507,1.507,0,0,0,10.411,7.808Zm.115,10.5h3.458V10.487H10.526ZM24.5,21.574" fill="currentColor"/>
</svg>
