<?xml version="1.0" encoding="utf-8"?>
<!-- Generator: Adobe Illustrator 26.0.1, SVG Export Plug-In . SVG Version: 6.00 Build 0)  -->
<svg version="1.1" id="レイヤー_1" xmlns="http://www.w3.org/2000/svg" xmlns:xlink="http://www.w3.org/1999/xlink" x="0px"
	 y="0px" viewBox="0 0 141 46" style="enable-background:new 0 0 141 46;" xml:space="preserve">
<style type="text/css">
	.st0{fill:#F18D00;}
	.st1{fill:#E8380D;}
</style>
<g>
	<g>
		<g>
			<path class="st0" d="M13.7,20.8c-2.2-1-4.2-1.7-7.4-1.7c-3,0-6.6,1.5-6.4,7.7c0.1,3.2,1,7.6,3.9,13.7C7.6,29.9,11,23.3,13.7,20.8
				z"/>
			<path class="st1" d="M43.4,20.3c-4,4.2-7.2,13-10.6,22c-1,2.5-4.3,3.2-7,3.3c-2.3,0-4.2-0.5-5-0.7c1.3-5.1,7-20.3,10.7-23.7
				c1.7-1.6,4.2-2.1,6.7-2.1C40.5,19.1,42.1,19.6,43.4,20.3z M23.3,19.1c-2.5,0-4.7,0.5-6.4,2.1c-3.7,3.4-9.7,18.6-11,23.7
				c0.8,0.2,2.7,0.7,5,0.7c2.7,0,6.1-0.7,7-3.3c3.5-9,6.6-17.8,10.6-22C27.3,19.6,25.7,19.1,23.3,19.1z M82.9,11.8
				c-3.5,0-6.3,1.3-7.6,4.8c-3.8,9.8-6.5,19.5-8.8,28.5c1.3,0.2,2.4,0.3,3.4,0.3c4.7,0,6.1-1.6,6.5-3c2.1-7.9,6.1-22.3,10.2-29.9
				C86.6,12.5,85,11.8,82.9,11.8z M103.4,19.6c-3,0-6.2,0.9-9,3.3c0.2-0.8,0.5-1.6,1.1-3.2c-1.4-0.4-2.6-0.5-3.6-0.4
				c-4,0-5.6,2.4-6.6,4.9c-1.5,3.6-4.8,16-6.1,20.9c1.3,0.2,2.5,0.3,3.5,0.3c4.4,0,6-1.5,6.5-3.2c1.6-5.6,2-7.4,3.3-10.9
				c1.1-2.9,3.2-5.2,5.6-5.2c1.8,0,2.8,1.2,2,3.7c-0.7,2.2-3.7,11.8-4.6,15.3c1.1,0.2,2.1,0.3,3,0.3c4.8,0.1,6.6-1.7,7-3.2
				c1.4-5.9,2.6-9.7,4.4-15.4C110.7,23.8,109.5,19.6,103.4,19.6z M130.9,19.6c-12.8,0-19.6,8.7-20.9,16.2c-0.9,5.5,1.9,9.7,7,9.7
				c4.4,0,7.2-2,9-4.1c-0.6,2.7,1.5,3.9,4.4,3.9c1,0,1.7,0,3.1-0.3c1-7,4.1-16.9,6.8-24.1C138.7,20.4,136,19.6,130.9,19.6z
				 M127.9,34.3c-1.4,2.5-3.9,4.1-5.8,4.1c-2.1,0-3.5-1.4-3.3-3.8c0.5-5.4,7.6-10,12.6-9.2C130.1,28,129.1,32,127.9,34.3z M55,39.6
				c-2.7,0-6.1-0.6-6.4-3.7c13.3,1.4,19.7-5.2,20.1-9.5c0.4-4.3-3.7-6.9-10.5-6.9c-12.5,0-18.5,9.4-19,15.6C38.5,42.6,45,46,51.8,46
				c5.3,0,9.3-1.4,11.2-3c1-0.9,2-2.9,2.3-7C62.3,38.3,58.3,39.6,55,39.6z M57.5,24.9c2,0,3,0.9,2.9,2c-0.2,1.9-2.7,4.2-10.5,3.6
				C51.2,27.2,54.1,24.9,57.5,24.9z"/>
		</g>
		<path class="st1" d="M51.7,10.8h-2.3c-0.3,0.4-0.8,0.8-1.3,1.2c-0.6-0.5-1.1-1.2-1.6-2.1h5.2V8.4h-6V7.5H45
			c0.5-0.2,0.6-0.6,0.6-1.1V4.6h-3V3.8h3V2.6h-3V1.8h2.6V0.7h-2.6V0h-1.9v0.7h-1.1L39.8,0h-1.7c-0.1,1.1-0.6,2.1-1.1,2.8h0.7v1h3.1
			v0.8h-2.1c-0.5,0-0.8,0.4-0.8,0.8v2.3h1.7v-2h1.3v2h1.9v-2h1.3v0.7c0,0.2-0.1,0.3-0.3,0.3h-0.5v1h0.4v0.8H37v1.5h4.1
			c-1.7,1-3.2,1.4-4.1,1.4v1.5c1.5-0.1,2.6-0.4,3.6-0.9v1.5h-2.5V15c3.4,0,5.7,0,7.9-0.5v-1.7c-0.9,0.3-2.8,0.5-3.5,0.5v-2.5
			c0.5-0.4,0.9-0.7,1.2-0.9h0.9c1.2,2.2,3,4.9,7.1,5v-1.6c-0.6,0-1.3-0.2-2.1-0.5C50.1,12.5,51,11.6,51.7,10.8z M40.7,2.6h-1.8
			C39,2.5,39.3,2,39.3,1.8h1.4V2.6z M48,5.3h-1.8v-5H48V5.3z M51.5,0.1V6c0,0.9-0.7,1.6-1.6,1.6h-2.3V6.2H49c0.3,0,0.6-0.3,0.6-0.6
			V0.1H51.5z M22.9,6.9c-0.8-0.4-2.3-1-3.4-1.3V3.8c1.1,0.3,2.5,0.9,3.4,1.3V6.9z M22.9,1.3c-0.8-0.4-2.3-1-3.4-1.3v1.8
			c1.1,0.3,2.5,0.9,3.4,1.3V1.3z M23.5,8.1h-2.1c-0.3,2.1-1.1,4.1-2.2,4.7V15C21.5,14.5,22.9,11.5,23.5,8.1z M34.1,5.1h-4.2V4.2h3.6
			V2.9h-3.6V2h4.2V0.7h-4.2V0h-2.1v0.7h-4V2h4v0.9h-3.4v1.3h3.4v0.9h-4v1.3h10.4V5.1z M25.5,7.3h8v5.9c0,1-0.8,1.8-1.8,1.8h-1.9
			l0-1.3h1c0.3,0,0.6-0.2,0.6-0.6v-0.3h-5.3V15h-2V8.6C24.2,7.9,24.8,7.3,25.5,7.3z M26.2,9.4h5.3V8.5h-5.3V9.4z M31.5,11.5v-0.9
			h-5.3v0.9H31.5z M54.9,6.9V5.2h2.2V0h1.7v5.2h2v1.7h-2v0.6c0.8,0.7,1.5,1.5,2.2,2.3l0,2.5c-0.4-0.5-1.5-2-2.2-2.6V15h-1.7v-4.4
			c-0.5,1.1-1.2,2.2-2.3,3.2l0-2.4c1.8-2,2.2-3.3,2.3-4.4H54.9z M61.2,0.6h-1.4c-0.1,0.8-0.4,2.7-0.7,3.8h1.4
			C60.7,3.5,61.1,1.4,61.2,0.6z M69.7,6.7V4.4c-1.5-1.3-2-3.5-2-4.4h-1.9c0,0.9,0.3,3.7,2.5,5.6h-5.7C64.8,3.7,65,1,65,0h-1.9
			c0,0.8-0.3,3.1-1.8,4.4v2.3c0.3-0.2,0.5-0.4,0.8-0.6v1.4h1.4c0,3-0.9,4.5-2.3,5.4V15c3.4-1.4,4.2-4.8,4.2-7.5h1.3l0,4.6
			c0,0.5-0.4,0.9-0.9,0.9h-0.7V15h1.3c1.3,0,2.3-1,2.3-2.3V6C69.1,6.3,69.4,6.5,69.7,6.7z M56.6,4.4c0-0.8-0.3-3-0.5-3.8h-1.4
			c0.2,0.8,0.5,3,0.5,3.8H56.6z M4.9,0.1C3.8,0.1,3,1,3,2.1V15h11.6c1.1,0,1.9-0.9,1.9-1.9V0.1H4.9z M14.1,13H5.3V8.5h8.8V13z
			 M14.1,6.6H5.3V2.1h8.8V6.6z"/>
	</g>
</g>
</svg>
