<svg xmlns="http://www.w3.org/2000/svg" width="22.874" height="17.156" viewBox="0 0 22.874 17.156">
  <path id="mail" d="M21.444,0H1.43A1.374,1.374,0,0,0,.424.424,1.374,1.374,0,0,0,0,1.43v14.3a1.374,1.374,0,0,0,.424,1.005,1.374,1.374,0,0,0,1.005.424H21.444a1.45,1.45,0,0,0,1.43-1.43V1.43A1.374,1.374,0,0,0,22.449.424,1.374,1.374,0,0,0,21.444,0ZM8.131,10.052l3.306,2.234,3.306-2.234,5.674,5.674H2.457ZM1.43,14.7V5.5l5.5,3.753Zm14.52-5.5,5.5-3.8V14.7Zm5.5-7.774V3.753L21.4,3.708l-9.963,6.88L1.43,3.753V1.43Zm1.43,14.3" fill="currentColor"/>
</svg>
