<svg xmlns="http://www.w3.org/2000/svg" width="21" height="29" viewBox="0 0 21 29">
  <path id="medal" d="M4.011,29l0-10.242a10.5,10.5,0,1,1,12.974,0V29l-6.656-3.635L4.013,29h0Zm9.976-5.057V20.407a10.551,10.551,0,0,1-6.974,0v3.4l3.281-1.888Zm-7.3-3.658-.029-.011Zm-.041-.016a10.487,10.487,0,0,1-2.472-1.39A10.43,10.43,0,0,0,6.642,20.268Zm7.794-.031.009,0Zm.046-.019.035-.014Zm.049-.02a10.408,10.408,0,0,0,1.679-.885A10.467,10.467,0,0,1,14.531,20.2Zm1.689-.892.034-.022Zm.061-.04.014-.009Zm-12.12-.4-.032-.024ZM4.1,18.828l-.015-.012ZM3,10.5A7.5,7.5,0,1,0,10.5,3,7.509,7.509,0,0,0,3,10.5Zm1.013,0A6.487,6.487,0,1,1,10.5,16.988,6.487,6.487,0,0,1,4.013,10.5Zm3,0A3.487,3.487,0,1,0,10.5,7.013,3.491,3.491,0,0,0,7.013,10.5Z" fill="currentColor"/>
</svg>
