<svg xmlns="http://www.w3.org/2000/svg" viewBox="0 0 134.15 90.05"><g id="Layer_2" data-name="Layer 2"><g id="Layer_1-2" data-name="Layer 1"><path d="M127.72,0H100.39a1.43,1.43,0,0,1,0,.29V82.47h7v6.12a1.46,1.46,0,0,0,1.46,1.46h15.89a1.47,1.47,0,0,0,1.46-1.46V82.47h1.49A6.43,6.43,0,0,0,134.15,76V6.43A6.43,6.43,0,0,0,127.72,0ZM117,69.38A5.4,5.4,0,1,1,122.4,64,5.39,5.39,0,0,1,117,69.38Zm0-16.21a5.4,5.4,0,1,1,5.39-5.39A5.39,5.39,0,0,1,117,53.17Zm9.38-26.94H107.62V13.08h18.77ZM96.92.29A1.43,1.43,0,0,1,97,0H6.43A6.43,6.43,0,0,0,0,6.43V76a6.43,6.43,0,0,0,6.43,6.43h1.5v6.12a1.46,1.46,0,0,0,1.46,1.46H25.27a1.46,1.46,0,0,0,1.46-1.46V82.47H96.92Zm-16.2,65.1H19.08a5,5,0,0,1-5-5V23.49a5,5,0,0,1,5-5H80.72a5,5,0,0,1,5,5V60.35A5,5,0,0,1,80.72,65.39Z" fill="currentColor"/></g></g></svg>
