<svg xmlns="http://www.w3.org/2000/svg" viewBox="0 0 24.6 23.6">
<path class="st0" d="M23.3,6.8H1.2C0.6,6.8,0,7.4,0,8v8.4c0,0.7,0.6,1.2,1.2,1.2h2.9v4.6c0,0.7,0.6,1.3,1.3,1.3h13.7
	c0.7,0,1.3-0.6,1.3-1.3v-4.6h2.9c0.7,0,1.2-0.6,1.2-1.2V8C24.6,7.4,24,6.8,23.3,6.8 M1.6,11.4c0-0.5,0.4-0.9,0.9-0.9h15.1
	c0.5,0,0.9,0.4,0.9,0.9c0,0.5-0.4,0.9-0.9,0.9c0,0,0,0,0,0H2.6C2.1,12.3,1.6,11.9,1.6,11.4 M19.4,22.3c0,0.1-0.1,0.2-0.2,0.2H5.4
	c-0.1,0-0.2-0.1-0.2-0.2V15h14.2L19.4,22.3z M21.2,12.9c-0.8,0-1.5-0.7-1.5-1.5c0-0.8,0.7-1.5,1.5-1.5c0.8,0,1.5,0.7,1.5,1.5l0,0
	C22.7,12.2,22.1,12.9,21.2,12.9 M6.8,18.1h11c0.3,0,0.5-0.2,0.5-0.5c0-0.3-0.2-0.5-0.5-0.5h-11c-0.3,0-0.5,0.2-0.5,0.5
	C6.3,17.9,6.5,18.1,6.8,18.1 M6.8,20.4h11c0.3,0,0.5-0.2,0.5-0.5c0-0.3-0.2-0.5-0.5-0.5h-11c-0.3,0-0.5,0.2-0.5,0.5
	C6.3,20.2,6.5,20.4,6.8,20.4 M4.7,5.7h0.5V1.5c0-0.2,0.2-0.3,0.3-0.3H19c0.2,0,0.3,0.2,0.3,0.3v4.3h2.8V4.9c0-0.5-0.4-0.9-0.9-0.9
	h-0.8V1.5C20.5,0.7,19.8,0,19,0H5.5C4.7,0,4.1,0.7,4.1,1.5V4H3.3C2.8,4,2.4,4.4,2.4,4.9v0.9L4.7,5.7L4.7,5.7z" fill="currentColor"/>
</svg>
