<svg xmlns="http://www.w3.org/2000/svg" viewBox="0 0 124.43 95.95"><g id="Layer_2" data-name="Layer 2"><g id="Layer_1-2" data-name="Layer 1"><path d="M118.31,9.86V83.67H73.63c7.31-3.54,19.06-7.4,35.63-7.4h1.54l3.08,0V.06l-3,0h-1.77C82.71,0,68.25,8.9,62.42,13.11,56.59,8.9,42.13,0,15.67,0H14l-3,0V76.33l3.07,0h1.52c16.59,0,28.35,3.86,35.66,7.4H6.77V9.86H0V91.22H53a11.3,11.3,0,0,0,18.39,0h53V9.86ZM64.66,19c1.86-1.59,15.66-12.59,43.16-12.95V70.21c-22.8.28-36.4,7.15-43.16,11.57ZM60.18,81.78C53.43,77.36,39.82,70.49,17,70.21V6.08c27.49.36,41.31,11.37,43.15,13Z" fill="currentColor"/></g></g></svg>
