<svg xmlns="http://www.w3.org/2000/svg" viewBox="0 0 143.49 107.77"><g id="Layer_2" data-name="Layer 2"><g id="Layer_1-2" data-name="Layer 1"><path d="M119.36,18.22H23.65c0-5.65,18.41-10.32,42.16-11V5.48a5.48,5.48,0,1,1,11,0V7.24C100.72,7.85,119.36,12.53,119.36,18.22ZM5.48,36.41h7.88l10.29,5.44V53.26h95.71V42.1l10.77-5.69H138a5.48,5.48,0,1,0,0-11h-10.6l-3.62,1.91-4.43,2.35V23.39H23.65v6.06L19.7,27.36l-3.62-1.91H5.48a5.48,5.48,0,0,0,0,11ZM138,61.74h-10.6l-3.62,1.91L119.36,66V59.29H23.65v6.45L19.7,63.65l-3.62-1.91H5.48a5.48,5.48,0,0,0,0,11h7.88l10.29,5.44V100.8a7,7,0,0,0,7,7h81.76a7,7,0,0,0,7-7V78.39l10.77-5.69H138a5.48,5.48,0,1,0,0-11Z" fill="currentColor"/></g></g></svg>
