<svg xmlns="http://www.w3.org/2000/svg" viewBox="0 0 115.37 115.36"><g id="Layer_2" data-name="Layer 2"><g id="Layer_1-2" data-name="Layer 1"><path d="M57.68,115.36a57.68,57.68,0,1,1,57.69-57.68A57.75,57.75,0,0,1,57.68,115.36ZM57.68,9a48.68,48.68,0,1,0,48.69,48.68A48.74,48.74,0,0,0,57.68,9Zm-.63,69.62a7.61,7.61,0,0,0-7.59,7.59v4.26a7.58,7.58,0,0,0,15.15.3H59.77a2.75,2.75,0,0,1-2.72,2.48,2.79,2.79,0,0,1-2.78-2.78V86.21a2.78,2.78,0,0,1,5.56,0v.06h4.81v-.06A7.6,7.6,0,0,0,57.05,78.62Zm11.71-2.94a4.1,4.1,0,1,0,4.1,4.1A4.1,4.1,0,0,0,68.76,75.68Zm1.2,4.1a1.2,1.2,0,1,0-2.4,0,1.2,1.2,0,0,0,2.4,0ZM93.43,52.34h-3.5a32.54,32.54,0,0,0-2.63-8.48l3.34-1.93a4,4,0,1,0-4-6.92L83,37.08a33.34,33.34,0,0,0-6.22-5.88L79,27.39a4,4,0,1,0-6.93-4l-2.28,3.95a32.5,32.5,0,0,0-8.13-2.09V20.6a4,4,0,0,0-8,0v4.65a32.61,32.61,0,0,0-8.13,2.09l-2.28-3.95a4,4,0,1,0-6.92,4l2.2,3.81a33.4,33.4,0,0,0-6.23,5.88L28.73,35a4,4,0,1,0-4,6.92l3.34,1.93a32.54,32.54,0,0,0-2.63,8.48h-3.5a4,4,0,1,0,0,8h3.17a32.57,32.57,0,0,0,2.05,9l-2.43,1.4a4,4,0,1,0,4,6.93l2.19-1.27,6.95-4a24.79,24.79,0,0,1-3.67-7.12,23.72,23.72,0,0,1-1.06-4.94A25.88,25.88,0,0,1,33,57.68a24.75,24.75,0,0,1,.58-5.34A25.27,25.27,0,0,1,35,47.88a24.41,24.41,0,0,1,3-5.18L50.51,55.29a7.54,7.54,0,0,0,7.17,10A7.65,7.65,0,0,0,60,64.89l3.63,3.68a3.5,3.5,0,0,0,5-4.92l-3.68-3.73a7.88,7.88,0,0,0,.33-2.24,7.57,7.57,0,0,0-7.57-7.57,7.46,7.46,0,0,0-2.13.31L43.09,37.81a24.83,24.83,0,0,1,6.52-3.45,24,24,0,0,1,4.07-1,24.41,24.41,0,0,1,8,0,24.15,24.15,0,0,1,4.08,1,24.69,24.69,0,0,1,7,3.82,25.06,25.06,0,0,1,3.21,3,24.8,24.8,0,0,1,4.34,6.73,25.24,25.24,0,0,1,1.44,4.46,24.75,24.75,0,0,1,.59,5.34,23.32,23.32,0,0,1-.15,2.66A24.5,24.5,0,0,1,77.49,72.4l7,4,2.19,1.27a4,4,0,0,0,4-6.93l-2.43-1.4a32.21,32.21,0,0,0,2-9h3.18a4,4,0,0,0,0-8Z" fill="currentColor"/></g></g></svg>
