<svg xmlns="http://www.w3.org/2000/svg" viewBox="0 0 109.79 111.27"><g id="Layer_2" data-name="Layer 2"><g id="Layer_1-2" data-name="Layer 1"><path d="M75.82,111.27,74.26,107H35.53L34,111.27H23.73L22.17,107H18.56A18.83,18.83,0,0,1,0,87.93V23.66a18.83,18.83,0,0,1,18.56-19H47.91V0H61.33V4.62h29.9a18.83,18.83,0,0,1,18.56,19V87.93a18.83,18.83,0,0,1-18.56,19H87.62l-1.56,4.3ZM17.92,14a8.93,8.93,0,0,0-8.83,9V88.59a8.94,8.94,0,0,0,8.83,9h74a8.94,8.94,0,0,0,8.83-9V23a8.93,8.93,0,0,0-8.83-9Zm33.25,70.5v7.7h0a34.79,34.79,0,0,0,7.45,0h0v-7.7a26.81,26.81,0,0,1-7.45,0ZM40.36,22.37a35.69,35.69,0,0,0-6.45,3.82h0l3.76,6.66A28.25,28.25,0,0,1,44.11,29l-3.75-6.65ZM72.12,78.73a27.75,27.75,0,0,1-6.45,3.83l3.75,6.65h0a35.11,35.11,0,0,0,6.45-3.82h0ZM81,66.84a29.05,29.05,0,0,1-3.74,6.61l6.5,3.84h0a37,37,0,0,0,3.73-6.61h0ZM26,34.3a36.29,36.29,0,0,0-3.73,6.61h0l6.5,3.84a28.77,28.77,0,0,1,3.74-6.6L26,34.3ZM94.86,52h-12a29.23,29.23,0,0,1,0,7.63h12c.12-1.25.19-2.53.19-3.81S95,53.23,94.86,52ZM26.63,55.8A30,30,0,0,1,26.88,52H14.93a38.4,38.4,0,0,0,0,7.63h12A30,30,0,0,1,26.63,55.8ZM87.51,40.91h0a36.54,36.54,0,0,0-3.73-6.6h0l-6.5,3.85A28.77,28.77,0,0,1,81,44.75ZM22.27,70.68h0A37,37,0,0,0,26,77.3h0l6.5-3.84a29.05,29.05,0,0,1-3.74-6.61Zm47.15-48.3L65.67,29a28.1,28.1,0,0,1,6.45,3.83l3.75-6.66h0a35.69,35.69,0,0,0-6.45-3.82Zm-35.51,63h0a35.11,35.11,0,0,0,6.45,3.82h0l3.75-6.65a27.9,27.9,0,0,1-6.44-3.83ZM50.5,55.8a4.45,4.45,0,0,0,4.39,4.5,4.34,4.34,0,0,0,3.46-1.73l17-1.49V54.86L58.62,53.42a4.49,4.49,0,0,0-1.48-1.49L55.62,26.86a27.16,27.16,0,0,1,3,.24V19.4h0a34.79,34.79,0,0,0-7.45,0h0v7.7c.75-.1,1.51-.17,2.27-.21L51.88,52.52A4.53,4.53,0,0,0,50.5,55.8Z" fill="currentColor"/></g></g></svg>
