<svg xmlns="http://www.w3.org/2000/svg" width="30.58" height="21.228" viewBox="0 0 30.58 21.228">
  <path id="title_ja" d="M172.208,6548.707c-3.882.3-4.322.337-6.978.45l-.276-1.759h1.5a10.954,10.954,0,0,0,.6-1.554h-2.145v-1.635h9.225v1.635h-1.909a21.636,21.636,0,0,1,2.024,2.739l-1.646.839C172.473,6549.166,172.361,6548.961,172.208,6548.707Zm-3.973-1.319c.234,0,2.614-.07,3.024-.083-.378-.509-.552-.714-.737-.938l1.155-.522h-2.759C168.827,6546.09,168.551,6546.754,168.235,6547.388Zm-18.136.327.011,1.2a29.685,29.685,0,0,1-3.729.42l-.153-1.584c.142,0,.767-.031.949-.031v-1.553h-.788a6.177,6.177,0,0,1-.888,3.126l-1.45-1.1a7.3,7.3,0,0,0,.786-3.748v-4.589h8.809v2.975h-1.217v.427H153.7v1.125h-1.268v.51h1.514v1.278h-1.064l.909.51a5.641,5.641,0,0,1-.856.858,9.906,9.906,0,0,0,1.153.267l-.847,1.563A7.071,7.071,0,0,1,150.1,6547.715Zm-1.287-.091c.643-.033,1.032-.093,1.134-.1a5.062,5.062,0,0,1-.767-1.358h-.367Zm2.689-.727c.091-.1.255-.276.612-.735h-1.319A2.563,2.563,0,0,0,151.5,6546.9Zm-2.126-2.013h1.472v-.51h-1.472Zm-2.914,0h1.38v-.51h-1.176v-1.125h1.176v-.427h-1.38Zm2.914-1.635h1.472v-.427h-1.472Zm-2.914-1.575h5.509v-.509h-5.509Zm10.714,7.625-.338-1.768h1.357a.212.212,0,0,0,.227-.227v-3.3h-3.975v-1.624h9.7v1.624h-3.973v4.352c0,.7-.522.941-1.083.941Zm3.831-4.333,1.563-.421a8.8,8.8,0,0,0,1.656,3.016l-1.308,1.3A9.844,9.844,0,0,1,161.006,6544.967Zm-6.683,2.646a5.916,5.916,0,0,0,1.542-3.067l1.646.368a9.126,9.126,0,0,1-1.858,3.934Zm10.14-5.557c2.565-.952,3.546-1.842,4.067-2.536h2.034a8.831,8.831,0,0,0,4.016,2.5l-.879,1.717a10.721,10.721,0,0,1-1.45-.727v.633H166.8v-.594a7.139,7.139,0,0,1-1.493.736Zm3.678.1h2.812a10.466,10.466,0,0,1-1.41-1.266A8.275,8.275,0,0,1,168.141,6542.155Zm-13.031-.663v-1.625h8.378v1.625Zm-3.529-3.437v-5.142h-.491v.45a8.831,8.831,0,0,1-1.2,4.691L148.589,6537l-.115.214a8.574,8.574,0,0,1-.869-1.084v1.923h-1.523v-1.8a6.745,6.745,0,0,1-1.44,1.378l-.643-1.767a7.667,7.667,0,0,0,1.482-1.164h-1.187v-1.452h1.788v-.489h-1.858v-1.482h.877a8.266,8.266,0,0,0-.183-.911h-.512v-1.481h1.676v-.592h1.574v.592h1.565v1.481h-.491c-.062.319-.072.378-.2.911h.735v1.482h-1.656v.489H149.2v1.452h-1.064a6.653,6.653,0,0,0,1.024.99,6.967,6.967,0,0,0,.367-2.338v-4.53a11.818,11.818,0,0,0,3.761-.63l.633,1.6a10.1,10.1,0,0,1-2.831.563v.887h2.831v1.666h-.737v5.142Zm-5.048-6.775h.592a8.78,8.78,0,0,0,.164-.911h-.93C146.431,6530.688,146.514,6531.167,146.533,6531.28Zm25.951,6.745v-.368H171.31v.368h-1.584v-5.037h4.362v5.037Zm-1.174-1.9h1.174v-1.616H171.31Zm-6.337,1.9v-5.037h4.19V6538h-1.6v-.346h-.992v.368Zm1.595-1.9h.992v-1.616h-.992ZM161.21,6538l-.164-.766h-4.1V6534.2h4.7v2.066h.236c.265,0,.265-.135.265-.308V6533.8c-.091.061-.164.1-.552.1h-1.552c-.348,0-.726-.113-.726-.611v-1.116h-.389c-.091.99-.716,1.534-2.136,2.064l-.336-.644v4.4h-1.627v-7.144h1.8a3.113,3.113,0,0,0-.144-.6h-2.024v-1.452h4v-.491h1.727v.491h3.965v1.452h-1.962a4.671,4.671,0,0,1-.193.6h1.777v6.195c0,.3,0,.949-.941.949Zm-2.788-2.035h1.756v-.59h-1.756Zm-1.962-3.055a1.42,1.42,0,0,0,1.051-.735h-1.051Zm4.22-.255c0,.193.113.2.2.2.482,0,.573,0,.614-.5l.654.152v-.337h-1.472Zm-2.268-1.8h1.8a4.546,4.546,0,0,0,.155-.6h-2.115C158.277,6530.36,158.36,6530.615,158.411,6530.859Zm7.513,1.605V6528.6h7.225v3.863Zm1.654-1.41h3.935v-.992h-3.935Z" transform="translate(-144 -6528.194)" fill="#fff"/>
</svg>
