<svg xmlns="http://www.w3.org/2000/svg" width="52.97" height="21.228" viewBox="0 0 52.97 21.228">
  <path id="title_alt" d="M169.818,6547.227V6526h27.151v21.228Zm9.433-10.1a2.1,2.1,0,0,0-.361.1,1.917,1.917,0,0,0-.334.171,2.077,2.077,0,0,0-.307.237,1.756,1.756,0,0,0-.472.666,2.261,2.261,0,0,0-.122.42,2.942,2.942,0,0,0-.046.481l-.016,3.262a2.966,2.966,0,0,0,.041.48,2.139,2.139,0,0,0,.118.422,1.906,1.906,0,0,0,.2.365,1.792,1.792,0,0,0,.273.306,2.1,2.1,0,0,0,.306.24,2,2,0,0,0,.334.174,2.042,2.042,0,0,0,.363.1,2.211,2.211,0,0,0,.391.04,2.327,2.327,0,0,0,.4-.04,2.091,2.091,0,0,0,.371-.1,2.039,2.039,0,0,0,.34-.174,2.141,2.141,0,0,0,.309-.242,1.782,1.782,0,0,0,.263-.306,1.874,1.874,0,0,0,.191-.365,2.348,2.348,0,0,0,.118-.424,3.138,3.138,0,0,0,.048-.48l.007-3.255a3.135,3.135,0,0,0-.044-.481,2.309,2.309,0,0,0-.117-.42,1.752,1.752,0,0,0-.189-.363,1.637,1.637,0,0,0-.26-.3,1.993,1.993,0,0,0-.306-.238,2.056,2.056,0,0,0-.337-.171,2.148,2.148,0,0,0-.37-.1,2.431,2.431,0,0,0-.4-.033A2.307,2.307,0,0,0,179.252,6537.122Zm10.523,1.039a.931.931,0,0,1,.2.059,1,1,0,0,1,.171.1.921.921,0,0,1,.143.136.992.992,0,0,1,.11.161,1.107,1.107,0,0,1,.079.174.985.985,0,0,1,.048.188,1.169,1.169,0,0,1,.016.2c0,.024,0,.051,0,.08s0,.055-.007.083-.007.052-.013.083a.841.841,0,0,1-.016.089.914.914,0,0,1-.084.194,1.054,1.054,0,0,1-.061.1c-.021.033-.046.069-.074.107l-2.788,3.617,0,1h4.088l0-1.058h-2.737l2.292-2.984a2.075,2.075,0,0,0,.186-.294,1.979,1.979,0,0,0,.135-.314,2.2,2.2,0,0,0,.079-.333,2.369,2.369,0,0,0-.018-.789,2,2,0,0,0-.3-.75,2.086,2.086,0,0,0-.258-.314,1.915,1.915,0,0,0-.309-.261,1.885,1.885,0,0,0-.352-.187,1.96,1.96,0,0,0-.4-.115,2.474,2.474,0,0,0-.439-.043,2.186,2.186,0,0,0-.394.041,1.908,1.908,0,0,0-.363.113,1.816,1.816,0,0,0-.329.184,2.066,2.066,0,0,0-.3.256,2.209,2.209,0,0,0-.246.319,2.166,2.166,0,0,0-.181.36,2.422,2.422,0,0,0-.117.4,3.109,3.109,0,0,0-.051.44h1.02a1.689,1.689,0,0,1,.041-.24,1.39,1.39,0,0,1,.071-.21,1.148,1.148,0,0,1,.1-.181.96.96,0,0,1,.13-.154,1,1,0,0,1,.148-.122,1.052,1.052,0,0,1,.166-.087,1.207,1.207,0,0,1,.186-.051,1.168,1.168,0,0,1,.2-.018A1.15,1.15,0,0,1,189.774,6538.161Zm-4.966,0a.869.869,0,0,1,.368.158.932.932,0,0,1,.145.136,1.158,1.158,0,0,1,.187.335,1.312,1.312,0,0,1,.048.188,1.36,1.36,0,0,1,.015.2c0,.026,0,.052,0,.08s0,.056-.008.083-.007.054-.012.083-.012.061-.018.089-.021.063-.035.1-.03.063-.049.1a1.164,1.164,0,0,1-.062.1c-.021.033-.046.069-.074.107l-2.8,3.617,0,1H186.6l0-1.058h-2.736l2.3-2.984a2.269,2.269,0,0,0,.187-.294,1.979,1.979,0,0,0,.135-.314,2.026,2.026,0,0,0,.081-.333,2.3,2.3,0,0,0,.026-.355,2.65,2.65,0,0,0-.041-.434,2.214,2.214,0,0,0-.113-.4,1.856,1.856,0,0,0-.184-.354,2.074,2.074,0,0,0-.256-.314,1.933,1.933,0,0,0-.307-.261,1.885,1.885,0,0,0-.352-.187,2.06,2.06,0,0,0-.4-.115,2.474,2.474,0,0,0-.439-.043,2.186,2.186,0,0,0-.394.041,1.909,1.909,0,0,0-.363.113,1.829,1.829,0,0,0-.33.184,2.066,2.066,0,0,0-.3.256,2.1,2.1,0,0,0-.246.319,2,2,0,0,0-.182.36,2.237,2.237,0,0,0-.118.4,2.881,2.881,0,0,0-.053.44h1.02a1.786,1.786,0,0,1,.041-.24,1.531,1.531,0,0,1,.072-.21,1.149,1.149,0,0,1,.1-.181,1.054,1.054,0,0,1,.13-.154,1.111,1.111,0,0,1,.15-.122,1.052,1.052,0,0,1,.166-.087,1.207,1.207,0,0,1,.186-.051,1.168,1.168,0,0,1,.2-.018A1.15,1.15,0,0,1,184.809,6538.161Zm-9.9,0a.945.945,0,0,1,.2.059.843.843,0,0,1,.312.235,1.4,1.4,0,0,1,.108.161,1.1,1.1,0,0,1,.077.174,1.212,1.212,0,0,1,.046.188,1.141,1.141,0,0,1,.013.2c0,.026,0,.051,0,.08s0,.056-.008.083-.008.052-.013.083-.01.056-.018.089-.021.061-.036.1-.031.066-.049.1-.039.069-.062.1-.048.069-.076.107l-2.825,3.617-.008,1h4.088l0-1.058h-2.736l2.322-2.984a2.11,2.11,0,0,0,.191-.294,1.911,1.911,0,0,0,.136-.314,2.065,2.065,0,0,0,.082-.333,2.1,2.1,0,0,0,.03-.355,2.484,2.484,0,0,0-.038-.434,2.207,2.207,0,0,0-.11-.4,1.977,1.977,0,0,0-.435-.668,1.933,1.933,0,0,0-.307-.261,1.872,1.872,0,0,0-.35-.187,1.976,1.976,0,0,0-.394-.115,2.474,2.474,0,0,0-.439-.043,2.186,2.186,0,0,0-.394.041,1.873,1.873,0,0,0-.363.113,1.842,1.842,0,0,0-.332.184,1.992,1.992,0,0,0-.3.256,2.2,2.2,0,0,0-.25.319,2.131,2.131,0,0,0-.186.36,2.551,2.551,0,0,0-.12.4,2.878,2.878,0,0,0-.056.44h1.02a1.95,1.95,0,0,1,.043-.24,1.4,1.4,0,0,1,.074-.21,1.037,1.037,0,0,1,.1-.181.971.971,0,0,1,.131-.154,1.11,1.11,0,0,1,.15-.122,1.069,1.069,0,0,1,.168-.087,1.138,1.138,0,0,1,.184-.051,1.079,1.079,0,0,1,.427.007Zm18.963,6.28H194a.316.316,0,0,0,.056,0,.513.513,0,0,0,.054-.006.4.4,0,0,0,.051-.015.366.366,0,0,0,.049-.018l.048-.023.043-.028a.349.349,0,0,0,.041-.031.239.239,0,0,0,.038-.034.361.361,0,0,0,.035-.038l.03-.041c.01-.016.018-.031.026-.046a.429.429,0,0,0,.023-.049c.007-.018.013-.036.018-.053s.008-.036.012-.052a.372.372,0,0,0,.007-.056c0-.021,0-.04,0-.059s0-.049,0-.074-.007-.044-.01-.069-.01-.041-.016-.062-.015-.038-.023-.057a.4.4,0,0,0-.028-.051c-.011-.018-.023-.033-.033-.047s-.025-.028-.038-.041l-.043-.036a.52.52,0,0,0-.044-.028.337.337,0,0,0-.051-.026.374.374,0,0,0-.054-.021.409.409,0,0,0-.058-.015c-.025-.006-.044-.01-.062-.013s-.044-.007-.066-.01l-.067,0h-.13l-.058,0-.053,0-.051.007a.291.291,0,0,0-.046.008.207.207,0,0,0-.044.01.353.353,0,0,0-.043.013.323.323,0,0,0-.039.016.185.185,0,0,0-.035.021.162.162,0,0,0-.033.025.289.289,0,0,0-.031.026c-.01.01-.018.021-.028.033s-.018.023-.026.034l-.026.042c-.007.015-.015.031-.023.047s-.013.033-.021.051l-.1.248c0,.008-.008.02-.013.029s-.008.018-.013.026-.008.017-.012.025l-.013.02-.013.017a.106.106,0,0,1-.013.015l-.016.013a.1.1,0,0,1-.016.011l-.018.008-.02.007-.02,0a.1.1,0,0,1-.023,0l-.023,0h-.026a.127.127,0,0,1-.028,0h-.061l-.028,0-.028,0-.026,0-.025,0-.025-.008-.023-.01-.021-.011a.125.125,0,0,1-.018-.015.111.111,0,0,1-.016-.015.147.147,0,0,1-.015-.018s-.01-.011-.015-.02a.144.144,0,0,1-.01-.021.094.094,0,0,1-.008-.026c0-.008,0-.018,0-.028a.211.211,0,0,1,0-.031.318.318,0,0,1,0-.059.21.21,0,0,1,.015-.048.167.167,0,0,1,.025-.04.218.218,0,0,1,.035-.031.383.383,0,0,1,.043-.023c.015-.006.031-.011.046-.016a.44.44,0,0,1,.049-.01.456.456,0,0,1,.054,0h.072l0-.324h-.158a.61.61,0,0,0-.1.008.489.489,0,0,0-.09.028.547.547,0,0,0-.084.046.492.492,0,0,0-.079.064.362.362,0,0,0-.035.038c-.011.015-.021.028-.031.042s-.018.028-.026.044-.016.031-.025.048-.013.034-.018.052a.267.267,0,0,0-.015.054c0,.019-.007.037-.008.056s0,.036,0,.059,0,.046,0,.069a.376.376,0,0,0,.01.064.521.521,0,0,0,.015.059.551.551,0,0,0,.021.054c.008.015.016.031.028.049s.021.031.031.044a.359.359,0,0,0,.035.039.261.261,0,0,0,.039.036.521.521,0,0,0,.044.033.351.351,0,0,0,.048.029.424.424,0,0,0,.051.023.443.443,0,0,0,.054.02.578.578,0,0,0,.058.015c.02,0,.038.008.061.012l.061.006h.062c.035,0,.069,0,.1,0a.8.8,0,0,0,.092-.015.7.7,0,0,0,.085-.021c.026-.01.051-.02.074-.031a.351.351,0,0,0,.067-.044.431.431,0,0,0,.059-.062.477.477,0,0,0,.053-.079.887.887,0,0,0,.046-.1l.094-.233.01-.021,0-.007,0,0c0-.008.008-.015.012-.023a.074.074,0,0,1,.008-.016l0-.007a.122.122,0,0,1,.012-.02.051.051,0,0,1,.012-.017.156.156,0,0,1,.013-.016l.015-.013.016-.013a.085.085,0,0,1,.02-.008.115.115,0,0,1,.021-.006.082.082,0,0,1,.023-.005l.028,0,.031,0a.2.2,0,0,0,.033,0h.154a.177.177,0,0,1,.033,0h.033l.03,0,.028.006.025.01a.086.086,0,0,1,.023.01l.021.015a.089.089,0,0,1,.018.016.176.176,0,0,1,.016.02.207.207,0,0,1,.013.021c0,.008.008.016.012.026s0,.018.007.03,0,.02,0,.035a.3.3,0,0,1,0,.038c0,.021,0,.041,0,.058a.353.353,0,0,1-.013.049.175.175,0,0,1-.054.071.36.36,0,0,1-.036.023l-.039.016-.041.01a.3.3,0,0,1-.043,0h-.1Zm-1.043-2.4c-.028,0-.056,0-.085.007s-.051,0-.074.01a.6.6,0,0,0-.066.015.437.437,0,0,0-.058.018.414.414,0,0,0-.053.026.316.316,0,0,0-.051.031.543.543,0,0,0-.046.038.517.517,0,0,0-.039.043.5.5,0,0,0-.035.044.466.466,0,0,0-.028.047c-.007.015-.013.031-.02.049a.317.317,0,0,0-.015.053c0,.018-.008.038-.011.056s0,.04-.007.061,0,.046,0,.066l0,.486H194.5l0-.326h-.881l0-.164a.739.739,0,0,0,0-.087.59.59,0,0,0-.012-.075.446.446,0,0,0-.02-.069.353.353,0,0,0-.028-.061.593.593,0,0,0-.033-.053.522.522,0,0,0-.041-.047.5.5,0,0,0-.046-.042.564.564,0,0,0-.053-.036c-.016-.01-.031-.018-.048-.026a.512.512,0,0,0-.048-.021l-.051-.015a.363.363,0,0,0-.051-.011.551.551,0,0,0-.056-.008l-.061,0-.067,0h-.169Zm-.225-1.294a.56.56,0,0,0-.207.1.451.451,0,0,0-.123.179.713.713,0,0,0-.039.248l0,.521h2.254l0-.324h-.961l0-.194.96-.3,0-.342-1.025.348a.551.551,0,0,0-.048-.07.457.457,0,0,0-.053-.061.412.412,0,0,0-.061-.048.458.458,0,0,0-.066-.038.532.532,0,0,0-.074-.026.747.747,0,0,0-.081-.02c-.028,0-.058-.008-.089-.012s-.062,0-.1,0A1.006,1.006,0,0,0,192.607,6540.744Zm-.373-.306h2.251l0-.324h-2.251Zm-.008-1.425h1.356v0l-1.354.488,0,.309h2.249l0-.322h-1.352v-.007l1.349-.493,0-.3h-2.249Zm.455-1.668-.061.008a.376.376,0,0,0-.059.015c-.018.006-.036.013-.054.021a.456.456,0,0,0-.049.025.386.386,0,0,0-.044.029.5.5,0,0,0-.041.031l-.038.036-.031.041-.026.043c-.008.013-.015.028-.023.044s-.013.029-.02.047l-.015.048c0,.017-.008.033-.01.048s0,.034-.007.049a.42.42,0,0,0,0,.049.479.479,0,0,0,0,.048c0,.017,0,.033.007.049s.007.031.012.048.01.033.016.049l.018.046c.008.016.016.031.025.044l.026.041c.01.013.021.026.033.04a.3.3,0,0,0,.036.038l.041.033.046.03a.533.533,0,0,0,.051.026l.054.021.058.015.062.008c.02,0,.041,0,.066,0h1.188c.025,0,.048,0,.067,0s.044-.005.064-.008l.058-.015.054-.021.048-.026a.32.32,0,0,0,.043-.03.272.272,0,0,0,.039-.033.489.489,0,0,0,.036-.038.466.466,0,0,0,.031-.04c.012-.015.021-.028.03-.041s.015-.03.023-.044l.02-.046c0-.018.01-.033.015-.049l.01-.048a.361.361,0,0,0,.007-.049c0-.02,0-.035,0-.048a.261.261,0,0,0,0-.049.486.486,0,0,0-.007-.049c0-.015-.007-.031-.012-.048s-.01-.033-.015-.048a.29.29,0,0,0-.02-.047c-.008-.015-.015-.03-.025-.044a.285.285,0,0,0-.028-.043l-.033-.041a.4.4,0,0,0-.036-.036.472.472,0,0,0-.039-.031.386.386,0,0,0-.044-.029.455.455,0,0,0-.049-.025.283.283,0,0,0-.053-.021.317.317,0,0,0-.058-.015c-.02,0-.041-.006-.064-.008a.531.531,0,0,0-.067,0h-.708l0,.577h.284l0-.256h.424a.267.267,0,0,1,.054,0,.192.192,0,0,1,.048.012.211.211,0,0,1,.039.02.267.267,0,0,1,.031.028l.025.035a.311.311,0,0,1,.016.036.354.354,0,0,1,.012.04.394.394,0,0,1,0,.044.176.176,0,0,1,0,.042.17.17,0,0,1-.01.039.274.274,0,0,1-.016.038.222.222,0,0,1-.025.034.162.162,0,0,1-.031.028.159.159,0,0,1-.039.02.149.149,0,0,1-.046.012.327.327,0,0,1-.056,0h-1.186a.308.308,0,0,1-.054,0,.222.222,0,0,1-.048-.012.246.246,0,0,1-.039-.02.162.162,0,0,1-.031-.028.222.222,0,0,1-.025-.034.28.28,0,0,1-.018-.038c0-.011-.007-.024-.01-.039a.352.352,0,0,1,0-.042.186.186,0,0,1,0-.044.175.175,0,0,1,.01-.04.309.309,0,0,1,.016-.036.226.226,0,0,1,.025-.035.178.178,0,0,1,.031-.028.2.2,0,0,1,.039-.02.164.164,0,0,1,.046-.012.267.267,0,0,1,.054,0h.115l0-.32h-.115A.506.506,0,0,0,192.681,6537.345Zm-2.654-4.566a1.113,1.113,0,0,0-.22.067,1.127,1.127,0,0,0-.2.113,1.35,1.35,0,0,0-.187.158,1.6,1.6,0,0,0-.21.27,1.723,1.723,0,0,0-.15.325,2.174,2.174,0,0,0-.089.379,3,3,0,0,0-.03.432,3.486,3.486,0,0,0,.031.452,2.447,2.447,0,0,0,.087.391,1.739,1.739,0,0,0,.146.33,1.342,1.342,0,0,0,.2.271,1.3,1.3,0,0,0,.194.168,1.139,1.139,0,0,0,.212.118,1.117,1.117,0,0,0,.23.071,1.245,1.245,0,0,0,.248.024,1.149,1.149,0,0,0,.276-.031.96.96,0,0,0,.25-.094.974.974,0,0,0,.22-.154,1.293,1.293,0,0,0,.194-.215,1.66,1.66,0,0,0,.158-.268,1.712,1.712,0,0,0,.112-.3,2.374,2.374,0,0,0,.067-.342,3.115,3.115,0,0,0,.021-.378,3.7,3.7,0,0,0-.025-.394,2.23,2.23,0,0,0-.069-.35,2.033,2.033,0,0,0-.112-.309,1.687,1.687,0,0,0-.158-.265,1.222,1.222,0,0,0-.194-.213,1.142,1.142,0,0,0-.225-.154,1.1,1.1,0,0,0-.255-.09,1.288,1.288,0,0,0-.524-.008Zm2.826,1.589c.007.024.015.052.026.083s.016.056.026.087.021.061.03.088.02.055.03.084h0l0,.005.035.093c.012.033.023.064.035.1s.025.066.036.1l.483,1.278h.9l-.023-3.471h-.9l0,.779c0,.034,0,.072,0,.115s0,.089.007.128,0,.092.008.141.008.1.013.154.01.1.016.169.013.128.02.184.015.136.021.2.018.146.026.217l-.1-.306c-.01-.03-.02-.059-.03-.087s-.02-.058-.028-.084-.018-.053-.026-.077l-.012-.03,0-.008c0-.011-.008-.023-.013-.034s-.008-.023-.012-.035-.008-.023-.012-.035-.008-.02-.011-.029-.008-.023-.012-.033l0,0c-.007-.02-.013-.038-.02-.056l-.02-.057-.48-1.216h-.9l.016,3.471h.9l-.007-.888v-.106c0-.038,0-.076,0-.115s0-.081,0-.123,0-.092-.007-.131,0-.071-.007-.109v0l0-.031c0-.044-.007-.1-.01-.153s-.008-.105-.013-.166-.008-.108-.015-.176Zm-5.251,1.921h.942l-.01-3.471H187.6Zm-2.246-2.641h.518l0,2.641h.942l0-2.641h.541l0-.83h-2Zm-1.185,2.641h.942l0-3.471h-.94Zm-2.775,0h1.319a1.258,1.258,0,0,0,.225-.018,1.027,1.027,0,0,0,.2-.051.933.933,0,0,0,.179-.085.9.9,0,0,0,.156-.12,1.021,1.021,0,0,0,.128-.148.762.762,0,0,0,.09-.169.984.984,0,0,0,.056-.19,1.277,1.277,0,0,0,.018-.214,1.058,1.058,0,0,0-.012-.166.812.812,0,0,0-.031-.147.651.651,0,0,0-.054-.125.529.529,0,0,0-.076-.105.559.559,0,0,0-.1-.085.644.644,0,0,0-.123-.069,1,1,0,0,0-.148-.053c-.054-.015-.112-.026-.173-.036a.889.889,0,0,0,.284-.064.583.583,0,0,0,.2-.138.6.6,0,0,0,.122-.214.967.967,0,0,0,.041-.289,1.076,1.076,0,0,0-.02-.209.876.876,0,0,0-.15-.356,1.146,1.146,0,0,0-.13-.148.9.9,0,0,0-.168-.118,1.231,1.231,0,0,0-.207-.084,1.877,1.877,0,0,0-.248-.051,2.6,2.6,0,0,0-.286-.017H181.4Zm-1.43,0h.942l.008-3.471h-.938Zm-1.425-1.4-.007,1.4h.943l.012-3.471h-.94l0,1.226H178.1l.007-1.226h-.94l-.018,3.471h.942l.007-1.4Zm-2.991.467c.007.033.016.067.026.1l.031.108.035.11c.015.039.028.077.039.111l.171.5H176.9l-.846-1.8.8-1.668h-1.052l-.148.474c0,.016-.013.039-.02.067a.789.789,0,0,0-.023.08c-.01.03-.018.061-.026.092s-.02.074-.028.107l0-.023c0-.01,0-.021-.007-.031s-.008-.035-.012-.051-.008-.033-.012-.047l0-.012-.01-.035,0-.015a.162.162,0,0,0-.008-.026.217.217,0,0,0-.012-.039c0-.017-.008-.028-.012-.038s-.008-.023-.011-.034l-.153-.469h-1.047l.787,1.668-.859,1.8h1.025l.177-.457c.018-.049.035-.092.048-.13s.028-.082.041-.123.025-.079.035-.115.018-.067.028-.106Zm-3.265.932h1.752l.007-.836h-.808l0-.531h.725l.007-.784h-.725l0-.5h.807l.007-.815h-1.747Zm8.939-7.8a1.05,1.05,0,0,0-.22.067,1.126,1.126,0,0,0-.2.111,1.472,1.472,0,0,0-.4.426,1.775,1.775,0,0,0-.151.324,2.138,2.138,0,0,0-.09.376,2.973,2.973,0,0,0-.033.43,3.479,3.479,0,0,0,.028.449,2.25,2.25,0,0,0,.085.389,1.65,1.65,0,0,0,.143.329,1.322,1.322,0,0,0,.2.269,1.27,1.27,0,0,0,.191.166,1.233,1.233,0,0,0,.212.119,1.2,1.2,0,0,0,.228.07,1.31,1.31,0,0,0,.248.023,1.159,1.159,0,0,0,.276-.031.994.994,0,0,0,.248-.092,1.05,1.05,0,0,0,.222-.154,1.313,1.313,0,0,0,.194-.215,1.7,1.7,0,0,0,.159-.265,1.937,1.937,0,0,0,.113-.3,2.646,2.646,0,0,0,.069-.34,3.04,3.04,0,0,0,.023-.376,3.635,3.635,0,0,0-.021-.39,2.4,2.4,0,0,0-.067-.35,2.008,2.008,0,0,0-.11-.306,1.669,1.669,0,0,0-.154-.264,1.266,1.266,0,0,0-.194-.212,1.038,1.038,0,0,0-.477-.244,1.334,1.334,0,0,0-.284-.031A1.215,1.215,0,0,0,181.225,6528.491Zm11.162,3.488h1.745l0-.83h-.807l0-.527h.723l0-.779h-.723l0-.5h.805l0-.81h-1.742Zm-2.08-1.908c.008.026.018.054.026.084s.018.056.028.085.018.056.028.087.021.061.031.09.023.064.033.094.023.064.036.1.021.059.031.089l0,.012.478,1.27h.9l-.018-3.449h-.894l0,.774c0,.042,0,.079,0,.115s0,.084,0,.128.007.1.01.14.008.1.013.153.01.115.015.168.012.117.02.184.013.125.021.2.018.156.026.217l-.1-.3,0-.008c-.008-.028-.018-.054-.026-.079l-.008-.028c-.007-.02-.013-.038-.02-.056s-.018-.053-.026-.077l-.008-.023v0c-.007-.016-.012-.031-.016-.047l-.015-.04,0,0-.008-.023,0-.015,0,0-.015-.044c-.008-.02-.015-.041-.021-.059s-.013-.038-.02-.056l-.475-1.209h-.9l.012,3.449h.9l0-.881c0-.035,0-.071,0-.107s0-.067,0-.113,0-.076,0-.123,0-.079,0-.131l0-.025c0-.038,0-.076-.008-.115s-.007-.1-.01-.153-.008-.12-.011-.166-.01-.113-.015-.174C190.292,6530.019,190.3,6530.045,190.307,6530.071Zm-2.281,1.908h.938l-.01-3.449h-.937Zm-1.924,0h1.645l0-.83h-.7l0-2.619H186.1Zm-2.07-1.908c.008.029.018.058.026.084s.016.056.026.085.015.042.021.064l0,0,.007.02c0,.017.01.035.016.051v0l0,.013a.147.147,0,0,1,.008.025c0,.015.01.03.016.044l0,.008.015.041.035.1.007.018.03.083.473,1.27h.9l0-3.449h-.9v.774c0,.036,0,.076,0,.115s0,.084,0,.128,0,.085.008.14.007.1.012.153.01.117.015.168.012.122.018.184.015.131.021.2.016.151.025.217l-.1-.3c-.008-.026-.016-.051-.025-.076l0-.008v0c-.01-.029-.02-.057-.028-.083l0-.007-.025-.07c-.008-.025-.016-.049-.025-.072s-.008-.02-.012-.031l0-.01a.114.114,0,0,1-.008-.026.2.2,0,0,1-.011-.031l0,0-.01-.029c0-.012-.008-.023-.012-.033l-.01-.026-.01-.03h0l-.01-.025-.468-1.209h-.9l0,3.449h.9v-.881c0-.033,0-.067,0-.1v0c0-.036,0-.075,0-.113s0-.074,0-.123l0-.131c0-.04,0-.083-.008-.14s-.007-.109-.01-.153c0-.06-.008-.12-.012-.166l0-.04c0-.043-.007-.089-.01-.135C184.015,6530.016,184.023,6530.042,184.031,6530.071Zm-18.214,13.988c-3,.229-3.344.26-5.4.347l-.214-1.359h1.162a8.762,8.762,0,0,0,.467-1.2h-1.66v-1.266h7.136v1.266h-1.479a16.47,16.47,0,0,1,1.566,2.118l-1.273.647C166.023,6544.414,165.936,6544.256,165.817,6544.059Zm-3.074-1.02c.182,0,2.023-.054,2.34-.064-.292-.394-.427-.552-.57-.726l.894-.4h-2.134C163.2,6542.035,162.988,6542.549,162.743,6543.039Zm-14.026.253.008.925a22.949,22.949,0,0,1-2.884.324l-.12-1.224c.112,0,.593-.024.736-.024v-1.2h-.61a4.8,4.8,0,0,1-.687,2.418l-1.122-.854a5.655,5.655,0,0,0,.608-2.9v-3.549h6.812v2.3h-.94v.332h.979v.87h-.979v.4h1.17v.987h-.822l.7.395a4.376,4.376,0,0,1-.662.664,7.55,7.55,0,0,0,.892.207l-.656,1.208A5.46,5.46,0,0,1,148.717,6543.292Zm-1-.071c.5-.024.8-.072.877-.079a3.93,3.93,0,0,1-.593-1.052h-.284Zm2.079-.562c.071-.079.2-.213.475-.568h-1.02A1.945,1.945,0,0,0,149.8,6542.659Zm-1.643-1.556h1.137v-.4h-1.137Zm-2.253,0h1.068v-.4h-.91v-.87h.91v-.332H145.9Zm2.253-1.266h1.137v-.332h-1.137Zm-2.253-1.217h4.259v-.395H145.9Zm8.285,5.9-.26-1.367h1.05a.163.163,0,0,0,.174-.176v-2.552h-3.074v-1.255h7.5v1.255h-3.073v3.367c0,.537-.4.728-.838.728Zm2.964-3.352,1.209-.324a6.805,6.805,0,0,0,1.28,2.332l-1.012,1A7.635,7.635,0,0,1,157.153,6541.166Zm-5.169,2.047a4.568,4.568,0,0,0,1.193-2.371l1.273.285a7.074,7.074,0,0,1-1.439,3.043Zm27.2.247a.77.77,0,0,1-.311-.215.924.924,0,0,1-.191-.353,1.748,1.748,0,0,1-.067-.491l.013-3.135a1.7,1.7,0,0,1,.072-.486.936.936,0,0,1,.192-.35.793.793,0,0,1,.311-.213,1.245,1.245,0,0,1,.432-.079,1.228,1.228,0,0,1,.431.079.8.8,0,0,1,.311.213.957.957,0,0,1,.191.35,1.76,1.76,0,0,1,.074.486l-.01,3.135a1.733,1.733,0,0,1-.076.491.952.952,0,0,1-.194.353.782.782,0,0,1-.314.215,1.3,1.3,0,0,1-.864,0Zm14.129-.7h-.766v-.167a.35.35,0,0,1,0-.044.147.147,0,0,1,0-.04.257.257,0,0,1,.008-.034.133.133,0,0,1,.012-.028.139.139,0,0,1,.016-.023.275.275,0,0,1,.018-.021l.023-.018.025-.013a.154.154,0,0,1,.028-.012l.031-.008.031-.006h.035a.235.235,0,0,1,.036,0h.038a.256.256,0,0,0,.038,0h.081a.29.29,0,0,0,.039,0,.1.1,0,0,1,.021,0h.018a.236.236,0,0,0,.035,0l.035,0,.03,0a.188.188,0,0,1,.028.01l.026.012c.008,0,.016.008.023.013l.021.018a.133.133,0,0,1,.018.023.176.176,0,0,1,.016.024.209.209,0,0,1,.013.03.163.163,0,0,1,.008.036.268.268,0,0,1,.007.039c0,.015,0,.03,0,.046l0,.156Zm-.772-1.29,0-.168a.382.382,0,0,1,.021-.141.248.248,0,0,1,.028-.051.126.126,0,0,1,.038-.036.152.152,0,0,1,.025-.013.159.159,0,0,1,.028-.01.177.177,0,0,1,.03-.01l.031,0h0l.03,0a.181.181,0,0,1,.036,0,.278.278,0,0,1,.039,0,.341.341,0,0,1,.041,0,.355.355,0,0,1,.041,0,.29.29,0,0,1,.039,0,.181.181,0,0,1,.036,0,.249.249,0,0,1,.033,0l.031,0c.012,0,.021,0,.03.008l.026.01.023.012a.241.241,0,0,1,.021.017.086.086,0,0,1,.018.018.135.135,0,0,1,.016.021.25.25,0,0,0,.013.023l.01.028c0,.01,0,.02.008.031a.241.241,0,0,1,0,.036.354.354,0,0,1,0,.041l0,.184Zm-32.717-2.559a6.41,6.41,0,0,0,3.145-1.96h1.574a6.853,6.853,0,0,0,3.106,1.936l-.68,1.328a8.3,8.3,0,0,1-1.122-.562v.491h-4.213v-.458a5.593,5.593,0,0,1-1.153.568Zm2.844.077h2.176a8.071,8.071,0,0,1-1.091-.979A6.312,6.312,0,0,1,162.671,6538.992Zm-10.077-.513v-1.257h6.479v1.257Zm-2.729-2.658v-3.977h-.38v.348a6.845,6.845,0,0,1-.925,3.628l-1.011-.815-.087.166a6.531,6.531,0,0,1-.674-.838v1.487h-1.176v-1.392a5.2,5.2,0,0,1-1.114,1.066l-.5-1.367a5.8,5.8,0,0,0,1.145-.9h-.917v-1.122h1.384v-.379h-1.438v-1.146h.679a6.371,6.371,0,0,0-.141-.705h-.4v-1.145h1.3v-.458h1.216v.458h1.211v1.145h-.38c-.048.247-.056.292-.158.705h.569v1.146h-1.282v.379h1.234v1.122H147.2a5.065,5.065,0,0,0,.79.766,5.424,5.424,0,0,0,.284-1.809v-3.5a9.129,9.129,0,0,0,2.908-.489l.49,1.24a7.782,7.782,0,0,1-2.189.436v.687h2.189v1.288H151.1v3.977Zm-3.9-5.24h.458a6.858,6.858,0,0,0,.125-.705h-.718C145.881,6530.122,145.943,6530.494,145.96,6530.581Zm20.069,5.215v-.284h-.907v.284H163.9v-3.9h3.375v3.9Zm-.907-1.469h.907v-1.249h-.907Zm-4.9,1.469v-3.9h3.24v3.879H162.22v-.268h-.766v.284Zm1.234-1.469h.766v-1.249h-.766Zm-4.144,1.452-.127-.591h-3.17v-2.348h3.636v1.6h.182c.2,0,.2-.1.2-.236v-1.668c-.071.048-.127.079-.426.079h-1.2c-.269,0-.562-.087-.562-.475v-.861h-.3c-.071.766-.552,1.185-1.651,1.6l-.26-.5v3.4h-1.259v-5.524h1.392a2.483,2.483,0,0,0-.11-.465h-1.566v-1.122h3.091v-.381h1.336v.381h3.066v1.122H158.07a3.406,3.406,0,0,1-.151.465h1.375v4.792c0,.228,0,.732-.726.732Zm-2.157-1.571h1.359v-.458h-1.359Zm-1.517-2.364a1.1,1.1,0,0,0,.813-.568h-.813Zm3.263-.2c0,.149.087.158.158.158.371,0,.442,0,.475-.386l.5.119v-.261H156.9Zm-1.755-1.392h1.39a3.791,3.791,0,0,0,.12-.465h-1.637C155.043,6529.869,155.106,6530.066,155.145,6530.255Zm27.268,5.284h-.031l-.007,0h-.023a.027.027,0,0,0-.011,0h0l0-.666h.074a.868.868,0,0,1,.087,0,.454.454,0,0,1,.076.017.386.386,0,0,1,.067.028.34.34,0,0,1,.058.038.391.391,0,0,1,.046.047.384.384,0,0,1,.033.058.36.36,0,0,1,.02.064.516.516,0,0,1,.007.074.375.375,0,0,1-.008.074.236.236,0,0,1-.02.066.281.281,0,0,1-.031.057.321.321,0,0,1-.046.049.327.327,0,0,1-.058.041.389.389,0,0,1-.066.03.622.622,0,0,1-.076.017.743.743,0,0,1-.084.006Zm7.772-.083a.229.229,0,0,1-.067-.044.371.371,0,0,1-.059-.076.569.569,0,0,1-.051-.105.941.941,0,0,1-.041-.134q-.017-.072-.03-.158c-.007-.057-.013-.118-.018-.181s0-.138,0-.208,0-.145,0-.208.01-.127.016-.181a1.248,1.248,0,0,1,.031-.156.9.9,0,0,1,.041-.128.688.688,0,0,1,.054-.106.394.394,0,0,1,.061-.078.268.268,0,0,1,.071-.047.221.221,0,0,1,.081-.015.21.21,0,0,1,.146.06.443.443,0,0,1,.1.176,1.411,1.411,0,0,1,.064.294,3.325,3.325,0,0,1,.023.413c0,.07,0,.138,0,.2s-.01.124-.016.178-.018.106-.03.154a1.122,1.122,0,0,1-.041.131.65.65,0,0,1-.049.1.348.348,0,0,1-.059.074.236.236,0,0,1-.069.044.212.212,0,0,1-.079.015A.2.2,0,0,1,190.185,6535.456Zm-7.844-1.29,0-.6h.1a.526.526,0,0,1,.145.018.27.27,0,0,1,.1.057.222.222,0,0,1,.062.094.386.386,0,0,1,.021.131.46.46,0,0,1-.007.067.33.33,0,0,1-.02.058.194.194,0,0,1-.03.051.259.259,0,0,1-.043.044.48.48,0,0,1-.054.035.4.4,0,0,1-.062.024.473.473,0,0,1-.071.015.618.618,0,0,1-.081,0Zm-21.384-2.668v-2.987h5.587v2.987Zm1.28-1.091h3.043v-.767h-3.043Zm19.128.746a.247.247,0,0,1-.067-.046.487.487,0,0,1-.059-.074.77.77,0,0,1-.049-.105,1.292,1.292,0,0,1-.039-.133c-.012-.048-.02-.1-.028-.156s-.013-.115-.016-.183,0-.135,0-.205,0-.142.007-.207.01-.126.018-.181a1.211,1.211,0,0,1,.031-.155.829.829,0,0,1,.043-.126.687.687,0,0,1,.053-.108.443.443,0,0,1,.062-.077.287.287,0,0,1,.071-.046.2.2,0,0,1,.079-.015.206.206,0,0,1,.146.059.44.44,0,0,1,.1.174,1.463,1.463,0,0,1,.062.292,3.713,3.713,0,0,1,.02.411c0,.071,0,.138-.007.2s-.01.122-.018.176a1.509,1.509,0,0,1-.03.154,1.091,1.091,0,0,1-.043.13.611.611,0,0,1-.049.1.344.344,0,0,1-.059.074.218.218,0,0,1-.069.044.212.212,0,0,1-.079.015A.2.2,0,0,1,181.365,6531.152Z" transform="translate(-144 -6526)" fill="currentColor"/>
</svg>
