<svg xmlns="http://www.w3.org/2000/svg" width="27.151" height="21.227" viewBox="0 0 27.151 21.227">
  <path id="title_en" d="M171.15,6547.227H144V6526H171.15v21.227Zm-17.328-10.139a2.209,2.209,0,0,0-.39.034,1.972,1.972,0,0,0-.362.1,1.907,1.907,0,0,0-.334.17,2.169,2.169,0,0,0-.306.237,1.759,1.759,0,0,0-.472.666,2.153,2.153,0,0,0-.122.421,2.856,2.856,0,0,0-.046.48l-.016,3.262a2.873,2.873,0,0,0,.041.48,2.153,2.153,0,0,0,.118.422,1.8,1.8,0,0,0,.2.364,1.765,1.765,0,0,0,.273.306,2.183,2.183,0,0,0,.306.24,1.948,1.948,0,0,0,.7.279,2.262,2.262,0,0,0,.392.039,2.38,2.38,0,0,0,.4-.039,2.03,2.03,0,0,0,.372-.106,1.992,1.992,0,0,0,.34-.174,2.136,2.136,0,0,0,.309-.241,1.763,1.763,0,0,0,.262-.306,1.882,1.882,0,0,0,.19-.365,2.292,2.292,0,0,0,.119-.423,3.086,3.086,0,0,0,.047-.481l.007-3.255a3.025,3.025,0,0,0-.045-.48,2.266,2.266,0,0,0-.116-.422,1.845,1.845,0,0,0-.188-.363,1.743,1.743,0,0,0-.26-.3,2.073,2.073,0,0,0-.306-.238,1.887,1.887,0,0,0-.338-.17,1.964,1.964,0,0,0-.369-.1A2.32,2.32,0,0,0,153.822,6537.088Zm9.908,1.048a1.254,1.254,0,0,1,.225.023.985.985,0,0,1,.2.061.891.891,0,0,1,.171.1.865.865,0,0,1,.144.136,1.16,1.16,0,0,1,.11.161,1.1,1.1,0,0,1,.127.362,1.265,1.265,0,0,1,.016.2c0,.024,0,.05,0,.08s0,.055-.007.083-.007.053-.012.084-.01.059-.017.088a.921.921,0,0,1-.035.1c-.013.031-.029.063-.048.1s-.04.07-.061.1-.046.068-.074.107l-2.788,3.616,0,1h4.088l0-1.058h-2.737l2.292-2.984a2.122,2.122,0,0,0,.187-.294,2,2,0,0,0,.133-.313,2.088,2.088,0,0,0,.079-.334,2.317,2.317,0,0,0,.025-.354,2.557,2.557,0,0,0-.043-.435,2.135,2.135,0,0,0-.114-.4,1.974,1.974,0,0,0-.186-.355,2.059,2.059,0,0,0-.257-.315,1.993,1.993,0,0,0-.31-.261,1.9,1.9,0,0,0-.352-.187,2.039,2.039,0,0,0-.4-.115,2.565,2.565,0,0,0-.439-.042,2.137,2.137,0,0,0-.395.041,1.871,1.871,0,0,0-.362.113,1.8,1.8,0,0,0-.329.184,2.054,2.054,0,0,0-.3.256,2.146,2.146,0,0,0-.246.32,2.115,2.115,0,0,0-.181.359,2.364,2.364,0,0,0-.116.4,2.828,2.828,0,0,0-.051.439h1.02a1.726,1.726,0,0,1,.041-.239,1.334,1.334,0,0,1,.071-.21,1.093,1.093,0,0,1,.1-.182,1.071,1.071,0,0,1,.278-.275.923.923,0,0,1,.166-.087.982.982,0,0,1,.184-.052A1.176,1.176,0,0,1,163.731,6538.136Zm-4.965,0a1.253,1.253,0,0,1,.224.023,1.012,1.012,0,0,1,.2.061.9.9,0,0,1,.171.1.859.859,0,0,1,.144.136,1.157,1.157,0,0,1,.11.161,1.1,1.1,0,0,1,.125.362,1.27,1.27,0,0,1,.016.2c0,.026,0,.053,0,.08s0,.057-.007.083-.007.054-.012.084-.011.061-.017.088a.977.977,0,0,1-.036.1c-.013.03-.029.063-.049.1s-.04.07-.062.1-.046.069-.074.107l-2.8,3.616v1h4.088v-1.058h-2.737l2.3-2.984a2.179,2.179,0,0,0,.188-.294,2.015,2.015,0,0,0,.134-.313,2.09,2.09,0,0,0,.08-.334,2.318,2.318,0,0,0,.026-.354,2.538,2.538,0,0,0-.041-.435,2.131,2.131,0,0,0-.113-.4,1.962,1.962,0,0,0-.184-.355,2.07,2.07,0,0,0-.256-.315,1.992,1.992,0,0,0-.308-.261,1.917,1.917,0,0,0-.352-.187,2.085,2.085,0,0,0-.395-.115,2.565,2.565,0,0,0-.439-.042,2.137,2.137,0,0,0-.395.041,1.883,1.883,0,0,0-.363.113,1.8,1.8,0,0,0-.33.184,2.049,2.049,0,0,0-.3.256,2.152,2.152,0,0,0-.429.679,2.391,2.391,0,0,0-.118.4,2.828,2.828,0,0,0-.052.439h1.02a1.755,1.755,0,0,1,.042-.239,1.331,1.331,0,0,1,.071-.21,1.092,1.092,0,0,1,.1-.182,1.078,1.078,0,0,1,.279-.275.929.929,0,0,1,.167-.087,1,1,0,0,1,.185-.052A1.178,1.178,0,0,1,158.765,6538.136Zm-9.9,0a1.248,1.248,0,0,1,.224.023.971.971,0,0,1,.2.061.881.881,0,0,1,.17.1.858.858,0,0,1,.143.136,1.159,1.159,0,0,1,.108.161,1.072,1.072,0,0,1,.077.174,1.1,1.1,0,0,1,.046.188,1.268,1.268,0,0,1,.014.2c0,.025,0,.051,0,.08s0,.057-.008.083-.008.054-.013.084-.01.056-.018.088a.986.986,0,0,1-.037.1c-.015.033-.031.066-.05.1s-.04.069-.062.1-.047.07-.075.107l-2.825,3.616-.008,1h4.088l.006-1.058h-2.737l2.323-2.984a2.149,2.149,0,0,0,.19-.294,2.032,2.032,0,0,0,.137-.313,2.086,2.086,0,0,0,.083-.334,2.288,2.288,0,0,0,.029-.354,2.56,2.56,0,0,0-.038-.435,2.146,2.146,0,0,0-.11-.4,1.969,1.969,0,0,0-.182-.355,2.062,2.062,0,0,0-.253-.315,1.988,1.988,0,0,0-.307-.261,1.9,1.9,0,0,0-.35-.187,2.018,2.018,0,0,0-.394-.115,2.559,2.559,0,0,0-.438-.042,2.143,2.143,0,0,0-.4.041,1.881,1.881,0,0,0-.363.113,1.829,1.829,0,0,0-.332.184,2.085,2.085,0,0,0-.3.256,2.186,2.186,0,0,0-.249.32,2.155,2.155,0,0,0-.185.359,2.362,2.362,0,0,0-.12.4,2.824,2.824,0,0,0-.056.439h1.02a1.781,1.781,0,0,1,.044-.239,1.358,1.358,0,0,1,.073-.21,1.125,1.125,0,0,1,.1-.182,1.089,1.089,0,0,1,.281-.275.919.919,0,0,1,.167-.087.989.989,0,0,1,.185-.052A1.182,1.182,0,0,1,148.868,6538.136Zm19.186,5.98,0,.325h.121l.056,0,.054-.008a.465.465,0,0,0,.052-.014.511.511,0,0,0,.049-.019l.047-.023.044-.027c.014-.01.028-.02.041-.031s.026-.023.038-.035a.405.405,0,0,0,.034-.038.509.509,0,0,0,.03-.042c.01-.016.018-.03.026-.046s.015-.032.022-.049.013-.036.018-.052.009-.038.012-.054.006-.038.007-.056,0-.039,0-.058,0-.05,0-.075-.005-.044-.01-.069a.567.567,0,0,0-.016-.063.479.479,0,0,0-.023-.057c-.009-.018-.018-.035-.028-.051a.5.5,0,0,0-.033-.046.462.462,0,0,0-.08-.077.5.5,0,0,0-.045-.029.49.49,0,0,0-.05-.025.545.545,0,0,0-.054-.021c-.021-.006-.04-.012-.059-.016s-.044-.01-.062-.013l-.065-.009-.067-.005-.07,0h-.06l-.057,0-.053,0-.05.005-.047.008-.044.011-.042.013-.039.016a.343.343,0,0,0-.035.021.29.29,0,0,0-.033.024.311.311,0,0,0-.031.028.327.327,0,0,0-.029.032.428.428,0,0,0-.027.036c-.01.014-.018.028-.025.041s-.016.03-.023.046-.014.033-.021.051l-.1.249-.012.03-.013.026-.012.023-.012.02-.013.017-.014.015-.016.013-.017.011-.018.009-.019.007-.021,0-.022,0-.023,0H167l-.028,0-.027,0-.027,0-.025-.005-.024-.008-.023-.01-.022-.012-.018-.014-.017-.016-.015-.018-.014-.02a.152.152,0,0,1-.011-.022.193.193,0,0,1-.008-.025.243.243,0,0,1,0-.029.3.3,0,0,1,0-.031.315.315,0,0,1,0-.058.215.215,0,0,1,.015-.048.155.155,0,0,1,.025-.04.161.161,0,0,1,.035-.031.361.361,0,0,1,.042-.023.324.324,0,0,1,.046-.017.447.447,0,0,1,.05-.01.46.46,0,0,1,.054,0h.073l0-.325h-.158a.518.518,0,0,0-.1.009.465.465,0,0,0-.09.028.484.484,0,0,0-.084.045.607.607,0,0,0-.078.064.514.514,0,0,0-.035.039c-.011.014-.022.028-.031.042s-.018.028-.027.045-.016.031-.024.048a.516.516,0,0,0-.033.105.493.493,0,0,0-.008.056c0,.018,0,.037,0,.059a.678.678,0,0,0,0,.069.554.554,0,0,0,.01.064.492.492,0,0,0,.037.113c.008.016.016.032.027.049a.526.526,0,0,0,.031.045.42.42,0,0,0,.035.04.387.387,0,0,0,.039.036l.043.033a.468.468,0,0,0,.048.028l.051.024a.509.509,0,0,0,.055.02c.02.006.039.011.058.015l.06.011.061.006.062,0c.035,0,.069,0,.1,0a.841.841,0,0,0,.093-.014.643.643,0,0,0,.084-.022.529.529,0,0,0,.075-.031.327.327,0,0,0,.067-.044.438.438,0,0,0,.06-.062.61.61,0,0,0,.053-.079.837.837,0,0,0,.045-.1l.094-.232.01-.022,0-.006v0l.011-.023.009-.017,0-.006.011-.02.012-.018.013-.015.015-.014.017-.012.019-.008.021-.007.024-.005.027,0,.031,0,.034,0h.2l.022,0,.03,0,.028.006.026.009.023.011.021.014.019.017.016.02a.167.167,0,0,1,.013.022.143.143,0,0,1,.011.025.2.2,0,0,1,.008.03c0,.009,0,.02,0,.034s0,.026,0,.039a.36.36,0,0,1,0,.058.243.243,0,0,1-.013.049.168.168,0,0,1-.022.04.154.154,0,0,1-.031.03.253.253,0,0,1-.037.023.3.3,0,0,1-.039.017.239.239,0,0,1-.041.01.3.3,0,0,1-.043,0Zm-.944-2.079h-.1l-.085.006c-.026,0-.051.005-.075.01a.652.652,0,0,0-.065.014.452.452,0,0,0-.058.019.434.434,0,0,0-.054.025.378.378,0,0,0-.05.032.432.432,0,0,0-.046.038.52.52,0,0,0-.04.042.558.558,0,0,0-.034.044.461.461,0,0,0-.027.047.413.413,0,0,0-.021.05c-.006.018-.011.035-.015.053s-.008.037-.011.057,0,.039-.006.061,0,.045,0,.065l0,.486h2.256l0-.324H167.8v-.165c0-.03,0-.059,0-.086a.7.7,0,0,0-.012-.077.5.5,0,0,0-.02-.069.412.412,0,0,0-.027-.06.428.428,0,0,0-.034-.053.419.419,0,0,0-.04-.047.435.435,0,0,0-.046-.042.471.471,0,0,0-.053-.036l-.047-.026-.048-.021-.05-.016-.052-.011-.055-.007-.061-.005-.067,0Zm-.033-1.33a1.069,1.069,0,0,0-.289.036.547.547,0,0,0-.206.106.443.443,0,0,0-.123.178.687.687,0,0,0-.04.249l0,.52h2.254l0-.323h-.962v-.193l.96-.3,0-.342-1.025.348a.625.625,0,0,0-.047-.072.507.507,0,0,0-.053-.06.419.419,0,0,0-.06-.048.461.461,0,0,0-.067-.037.751.751,0,0,0-.073-.027c-.025-.007-.051-.013-.081-.019s-.057-.009-.089-.011S167.11,6540.707,167.076,6540.707Zm-.664-.592,0,.323h2.252l0-.323Zm1.349-1.1v.006l-1.353.487,0,.31h2.251l0-.322h-1.353v-.007l1.349-.492,0-.3H166.4l0,.322Zm-.834-1.671-.066,0a.6.6,0,0,0-.062.009l-.058.015a.57.57,0,0,0-.054.021l-.05.025-.045.029-.041.032a.515.515,0,0,0-.037.036c-.011.013-.021.026-.031.041s-.018.026-.027.042-.015.028-.023.045-.013.03-.019.047-.01.031-.015.048-.008.032-.011.048-.005.034-.006.048,0,.03,0,.049,0,.031,0,.049,0,.032.007.049.007.032.011.048.01.033.016.048.012.03.019.047.016.031.023.044.017.027.027.042.02.026.032.039a.465.465,0,0,0,.037.038.408.408,0,0,0,.042.033.482.482,0,0,0,.046.03l.05.025a.556.556,0,0,0,.054.021l.058.015c.019,0,.04.007.062.009s.042,0,.066,0h1.188c.025,0,.047,0,.068,0a.569.569,0,0,0,.063-.009.542.542,0,0,0,.058-.015.559.559,0,0,0,.053-.021l.048-.025a.416.416,0,0,0,.044-.03.425.425,0,0,0,.039-.033.419.419,0,0,0,.035-.038c.011-.012.022-.025.032-.039s.02-.028.028-.042.016-.029.024-.044.014-.031.019-.047.011-.033.015-.048a.484.484,0,0,0,.011-.048c0-.015,0-.03.006-.049s0-.035,0-.049,0-.03,0-.049,0-.033-.007-.048-.007-.032-.011-.048-.01-.034-.016-.048a.494.494,0,0,0-.02-.047c-.007-.015-.015-.03-.024-.045a.447.447,0,0,0-.029-.042c-.01-.013-.02-.026-.033-.041a.443.443,0,0,0-.035-.036c-.013-.011-.026-.022-.04-.032l-.044-.029-.049-.025a.435.435,0,0,0-.053-.021.589.589,0,0,0-.058-.015.568.568,0,0,0-.063-.009l-.068,0h-.707l0,.577h.284l0-.256h.423a.3.3,0,0,1,.055,0,.22.22,0,0,1,.047.012.162.162,0,0,1,.039.02.16.16,0,0,1,.032.028.269.269,0,0,1,.024.034.257.257,0,0,1,.017.037.215.215,0,0,1,.011.04.244.244,0,0,1,0,.043.239.239,0,0,1,0,.042.208.208,0,0,1-.01.04.194.194,0,0,1-.017.037.248.248,0,0,1-.024.034.168.168,0,0,1-.032.028.207.207,0,0,1-.039.02.224.224,0,0,1-.047.012.321.321,0,0,1-.055,0h-1.187a.313.313,0,0,1-.055,0,.251.251,0,0,1-.047-.012.229.229,0,0,1-.039-.02.174.174,0,0,1-.032-.028.285.285,0,0,1-.024-.034.239.239,0,0,1-.017-.037.233.233,0,0,1-.011-.04.286.286,0,0,1,0-.042.265.265,0,0,1,0-.043.238.238,0,0,1,.01-.04.224.224,0,0,1,.017-.037.274.274,0,0,1,.024-.034.175.175,0,0,1,.031-.028.179.179,0,0,1,.039-.02.222.222,0,0,1,.047-.012.307.307,0,0,1,.055,0h.114l0-.321Zm-2.482-4.585a1.256,1.256,0,0,0-.237.022,1.114,1.114,0,0,0-.221.068,1.14,1.14,0,0,0-.2.113,1.323,1.323,0,0,0-.187.158,1.469,1.469,0,0,0-.21.271,1.656,1.656,0,0,0-.15.325,2.146,2.146,0,0,0-.089.379,2.978,2.978,0,0,0-.029.434,3.362,3.362,0,0,0,.03.451,2.331,2.331,0,0,0,.088.391,1.674,1.674,0,0,0,.146.331,1.4,1.4,0,0,0,.2.271,1.381,1.381,0,0,0,.194.167,1.19,1.19,0,0,0,.212.119,1.13,1.13,0,0,0,.23.071,1.249,1.249,0,0,0,.249.024,1.214,1.214,0,0,0,.277-.031,1.045,1.045,0,0,0,.249-.093,1.087,1.087,0,0,0,.221-.155,1.343,1.343,0,0,0,.193-.216,1.665,1.665,0,0,0,.158-.268,1.875,1.875,0,0,0,.112-.3,2.353,2.353,0,0,0,.067-.341,3.05,3.05,0,0,0,.021-.378,3.286,3.286,0,0,0-.024-.393,2.5,2.5,0,0,0-.069-.351,1.952,1.952,0,0,0-.113-.308,1.626,1.626,0,0,0-.157-.266,1.286,1.286,0,0,0-.194-.213,1.1,1.1,0,0,0-.225-.153,1.119,1.119,0,0,0-.255-.092A1.309,1.309,0,0,0,164.446,6532.756Zm-14.715,2.6h0c.008.032.017.067.027.1s.021.074.031.108.023.074.035.11.026.078.039.113l.171.5h1.046l-.845-1.8.8-1.667h-1.053l-.147.474c-.005.016-.013.04-.021.067l-.023.08c-.008.03-.017.061-.025.093l-.028.106,0-.021-.007-.032-.012-.051-.012-.048,0-.012-.009-.034,0-.015-.008-.027-.012-.04-.012-.037-.012-.034-.152-.469h-1.046l.786,1.667-.859,1.8H149.4l.177-.458c.019-.049.034-.092.048-.13s.028-.081.041-.123.025-.079.035-.115S149.721,6535.4,149.731,6535.357Zm17.279-1.07c.008.027.015.054.023.081l.026.084.028.086.03.088c.009.028.019.055.029.084v0l0,0,.033.094.035.1.037.1.482,1.279h.9l-.024-3.47h-.9l0,.778c0,.034,0,.072,0,.116s0,.088.006.128.006.092.009.141.008.1.013.154.009.1.016.169.013.129.02.185.015.136.023.2.017.147.026.218l-.1-.306-.029-.088-.028-.083-.027-.078-.01-.03,0-.007-.012-.035-.012-.034-.012-.034-.011-.03h0l-.012-.033v0l-.02-.056-.02-.056-.479-1.216h-.9l.018,3.47h.9l-.005-.887c0-.039,0-.074,0-.106s0-.076,0-.115,0-.081,0-.124,0-.091-.006-.132,0-.071-.007-.109v0l0-.03c0-.044-.007-.1-.011-.153s-.008-.106-.013-.166-.009-.109-.015-.176Zm-11.426-1.469-.008,3.47H156.9a1.385,1.385,0,0,0,.225-.018,1.12,1.12,0,0,0,.2-.051,1,1,0,0,0,.179-.086.944.944,0,0,0,.156-.12.925.925,0,0,0,.127-.147.858.858,0,0,0,.091-.169.948.948,0,0,0,.055-.191,1.2,1.2,0,0,0,.018-.213,1.228,1.228,0,0,0-.011-.167.88.88,0,0,0-.032-.146.672.672,0,0,0-.054-.125.553.553,0,0,0-.076-.1.59.59,0,0,0-.1-.086.749.749,0,0,0-.123-.069,1.02,1.02,0,0,0-.148-.052,1.547,1.547,0,0,0-.173-.036.931.931,0,0,0,.284-.064.573.573,0,0,0,.2-.139.567.567,0,0,0,.122-.213.941.941,0,0,0,.041-.288,1.13,1.13,0,0,0-.018-.208.955.955,0,0,0-.056-.189.867.867,0,0,0-.094-.168.923.923,0,0,0-.131-.148.815.815,0,0,0-.167-.118,1.079,1.079,0,0,0-.207-.084,1.6,1.6,0,0,0-.247-.051,2.4,2.4,0,0,0-.287-.017Zm6.191,0,.007,3.47h.942l-.01-3.47Zm-1.721.83,0,2.64H161l0-2.64h.539v-.83h-2v.83Zm-1.7-.83v3.47h.942v-3.47h-.94Zm-4.195,0-.011,3.47h.942l.009-3.47Zm-1.884,2.072h.449l-.006,1.4h.942l.013-3.47h-.94l-.005,1.225h-.449l.006-1.225h-.94l-.018,3.47h.942l.006-1.4Zm-5.776-2.072-.03,3.47h1.751l.006-.835h-.808l0-.531h.725l.006-.784h-.724l0-.5h.807l.006-.814Zm9.145-4.351a1.212,1.212,0,0,0-.237.022,1.08,1.08,0,0,0-.22.067,1.148,1.148,0,0,0-.2.112,1.336,1.336,0,0,0-.187.157,1.469,1.469,0,0,0-.211.269,1.65,1.65,0,0,0-.151.323,2.119,2.119,0,0,0-.091.377,2.923,2.923,0,0,0-.032.431,3.336,3.336,0,0,0,.027.448,2.293,2.293,0,0,0,.085.389,1.666,1.666,0,0,0,.143.329,1.377,1.377,0,0,0,.2.27,1.319,1.319,0,0,0,.192.166,1.141,1.141,0,0,0,.44.189,1.269,1.269,0,0,0,.247.023,1.2,1.2,0,0,0,.276-.031,1.057,1.057,0,0,0,.249-.092,1.133,1.133,0,0,0,.222-.154,1.394,1.394,0,0,0,.194-.215,1.658,1.658,0,0,0,.159-.266,1.915,1.915,0,0,0,.114-.3,2.353,2.353,0,0,0,.068-.339,3,3,0,0,0,.023-.376,3.266,3.266,0,0,0-.022-.391,2.426,2.426,0,0,0-.066-.349,1.908,1.908,0,0,0-.111-.307,1.622,1.622,0,0,0-.155-.264,1.305,1.305,0,0,0-.193-.212,1.083,1.083,0,0,0-.223-.152,1.061,1.061,0,0,0-.254-.091A1.309,1.309,0,0,0,155.642,6528.468Zm8.822,1.522.023.08.026.083.027.085.029.088.031.091.033.094.035.1.032.088,0,.012.478,1.271h.9l-.018-3.449h-.894l0,.773c0,.041,0,.079,0,.115s0,.083.006.127.006.1.009.14.008.1.012.153.01.114.016.168.012.117.019.184.013.124.022.2.018.157.025.217l-.1-.3,0-.008-.026-.08-.009-.027-.019-.056-.026-.077-.008-.022v0l-.016-.047-.014-.04,0,0-.008-.023-.005-.015v0l-.016-.044-.021-.06-.02-.056-.475-1.208h-.894l.011,3.449h.9l0-.881c0-.034,0-.07,0-.106s0-.068,0-.114,0-.074,0-.122,0-.079-.006-.131l0-.026c0-.037,0-.076-.007-.115s-.007-.1-.01-.153-.009-.119-.012-.165l-.014-.175Zm-6.275,0,.023.08.025.083c.008.026.017.056.027.085l.021.065v0l.006.02.017.051v0l0,.013.008.025.015.044,0,.008.014.042.034.1.007.019.029.082.472,1.271h.9l0-3.449H158.9v.773c0,.036,0,.075,0,.115s0,.083,0,.127,0,.085.008.14.007.1.012.153.01.117.015.168.012.121.018.184.014.131.021.2.017.152.024.217l-.1-.3-.025-.076,0-.008v0l-.027-.083,0-.007-.024-.07-.025-.072-.011-.031,0-.01-.009-.026-.011-.031v0l-.01-.029-.012-.033-.009-.026-.011-.03h0l-.009-.024-.469-1.208h-.894l0,3.449h.9v-.881c0-.033,0-.067,0-.1v0c0-.037,0-.075,0-.114s0-.074,0-.122,0-.087-.006-.131,0-.083-.008-.141-.007-.107-.01-.153-.008-.119-.012-.165l0-.04c0-.044-.007-.089-.011-.135Zm8.359-1.46.019,3.449h1.746l-.005-.831H167.5l0-.528h.722l-.005-.779h-.722l0-.5h.805l-.005-.81Zm-4.35,0,.008,3.449h.939l-.01-3.449Zm-1.919,0,0,3.449h1.644l0-.831h-.7l0-2.619Zm-6.48,15a1.228,1.228,0,0,1-.433-.075.784.784,0,0,1-.311-.214.94.94,0,0,1-.19-.353,1.778,1.778,0,0,1-.068-.493l.013-3.135a1.754,1.754,0,0,1,.072-.486.949.949,0,0,1,.192-.35.807.807,0,0,1,.312-.214,1.227,1.227,0,0,1,.862,0,.807.807,0,0,1,.311.214.959.959,0,0,1,.192.35,1.768,1.768,0,0,1,.073.486l-.009,3.135a1.8,1.8,0,0,1-.076.493.96.96,0,0,1-.195.353.8.8,0,0,1-.313.214A1.228,1.228,0,0,1,153.8,6543.533Zm13.7-.771h-.766v-.168c0-.018,0-.032,0-.045a.347.347,0,0,1,0-.039.267.267,0,0,1,.009-.034.168.168,0,0,1,.012-.028.186.186,0,0,1,.016-.024.189.189,0,0,1,.019-.021l.022-.018.026-.014.028-.011.03-.009.032-.005.035,0h.27l.036,0,.033,0,.031.006.028.009.025.011a.185.185,0,0,1,.045.033l.018.021a.214.214,0,0,1,.016.025.178.178,0,0,1,.013.029.306.306,0,0,1,.009.036.384.384,0,0,1,.006.041c0,.014,0,.029,0,.046v.156Zm-.071-1.29h-.7v-.168a.5.5,0,0,1,.005-.077.315.315,0,0,1,.016-.064.214.214,0,0,1,.027-.05.156.156,0,0,1,.038-.037l.025-.013.027-.011.029-.008.031-.006h0l.03,0,.036,0,.039,0h.083l.039,0,.036,0,.033,0h0l.031.006.029.007.026.01.024.012.021.016a.163.163,0,0,1,.018.019.2.2,0,0,1,.016.021.239.239,0,0,1,.013.024.181.181,0,0,1,.011.028.311.311,0,0,1,.007.032c0,.011,0,.023,0,.036s0,.027,0,.041v.184Zm-10.825-5.934h-.081v-.665h.075a.625.625,0,0,1,.087.005.472.472,0,0,1,.077.016.4.4,0,0,1,.067.027.315.315,0,0,1,.057.039.3.3,0,0,1,.046.048.281.281,0,0,1,.033.057.3.3,0,0,1,.02.065.4.4,0,0,1,.006.073.4.4,0,0,1-.007.074.327.327,0,0,1-.02.066.31.31,0,0,1-.033.058.314.314,0,0,1-.046.05.341.341,0,0,1-.057.041.37.37,0,0,1-.066.029.458.458,0,0,1-.075.018A.647.647,0,0,1,156.6,6535.539Zm7.842-.068a.2.2,0,0,1-.077-.015.231.231,0,0,1-.068-.045.352.352,0,0,1-.059-.076.676.676,0,0,1-.051-.105,1.1,1.1,0,0,1-.04-.133c-.012-.048-.021-.1-.029-.158s-.014-.119-.018-.182-.006-.137-.006-.208,0-.146.005-.209.01-.126.017-.182a1.463,1.463,0,0,1,.03-.155.925.925,0,0,1,.042-.128.7.7,0,0,1,.054-.108.38.38,0,0,1,.062-.077.244.244,0,0,1,.07-.046.213.213,0,0,1,.225.043.446.446,0,0,1,.1.176,1.4,1.4,0,0,1,.064.294,3.642,3.642,0,0,1,.023.412c0,.071,0,.139-.005.2s-.009.124-.017.178-.017.106-.029.154a1.012,1.012,0,0,1-.041.131.613.613,0,0,1-.049.1.348.348,0,0,1-.059.075.231.231,0,0,1-.069.044A.211.211,0,0,1,164.443,6535.471Zm-7.858-1.306h-.063v-.6h.1a.509.509,0,0,1,.145.019.272.272,0,0,1,.1.057.234.234,0,0,1,.062.094.38.38,0,0,1,.021.131.364.364,0,0,1-.006.067.266.266,0,0,1-.019.059.239.239,0,0,1-.031.051.273.273,0,0,1-.043.043.32.32,0,0,1-.054.034.4.4,0,0,1-.062.025.538.538,0,0,1-.071.015A.605.605,0,0,1,156.585,6534.165Zm-.963-3a.192.192,0,0,1-.077-.015.212.212,0,0,1-.068-.045.365.365,0,0,1-.059-.075.663.663,0,0,1-.05-.1,1.042,1.042,0,0,1-.04-.132c-.011-.047-.021-.1-.028-.157s-.013-.114-.017-.181-.005-.136-.005-.206,0-.142.007-.208.01-.125.019-.181a1.38,1.38,0,0,1,.031-.154.893.893,0,0,1,.043-.127.647.647,0,0,1,.054-.107.376.376,0,0,1,.062-.077.237.237,0,0,1,.071-.046.211.211,0,0,1,.224.043.434.434,0,0,1,.1.175,1.364,1.364,0,0,1,.062.292,3.544,3.544,0,0,1,.02.41c0,.071,0,.138-.006.2s-.01.122-.018.177a1.529,1.529,0,0,1-.03.153,1.018,1.018,0,0,1-.042.13.605.605,0,0,1-.05.1.341.341,0,0,1-.06.074.223.223,0,0,1-.069.044A.21.21,0,0,1,155.622,6531.167Z" transform="translate(-143.999 -6526)" fill="#fff"/>
</svg>
