<svg xmlns="http://www.w3.org/2000/svg" width="38.555" height="21.229" viewBox="0 0 38.555 21.229">
  <path id="title_short" d="M172.209,6546.515c-3.883.3-4.323.336-6.98.448l-.276-1.758h1.5a11.3,11.3,0,0,0,.6-1.553h-2.146v-1.635h9.226v1.635h-1.911a21.611,21.611,0,0,1,2.024,2.739l-1.646.838C172.475,6546.973,172.362,6546.769,172.209,6546.515Zm-3.975-1.32c.235,0,2.616-.072,3.025-.08-.38-.513-.552-.717-.736-.942l1.153-.521h-2.759C168.826,6543.9,168.55,6544.561,168.234,6545.195Zm-18.134.327.01,1.2a29.782,29.782,0,0,1-3.73.419l-.153-1.584c.143,0,.766-.031.95-.031v-1.553h-.787a6.194,6.194,0,0,1-.889,3.127l-1.451-1.1a7.291,7.291,0,0,0,.787-3.75v-4.587h8.809v2.974h-1.216v.427H153.7v1.124h-1.267v.511h1.512v1.278h-1.063l.91.511a5.775,5.775,0,0,1-.859.857,10.109,10.109,0,0,0,1.155.266l-.848,1.563A7.032,7.032,0,0,1,150.1,6545.522Zm-1.288-.092c.644-.031,1.032-.092,1.134-.1a5.016,5.016,0,0,1-.766-1.359h-.368Zm2.688-.725c.092-.1.255-.276.613-.736h-1.319A2.57,2.57,0,0,0,151.5,6544.706Zm-2.126-2.015h1.472v-.511h-1.472Zm-2.912,0h1.379v-.511h-1.175v-1.124h1.175v-.427h-1.379Zm2.912-1.635h1.472v-.427h-1.472Zm-2.912-1.573h5.508v-.511h-5.508Zm10.712,7.623-.337-1.768H158.2a.21.21,0,0,0,.225-.225v-3.3h-3.976v-1.625h9.7v1.625h-3.975v4.353c0,.7-.521.94-1.083.94Zm18.832-.084a.438.438,0,0,1-.053-.006.427.427,0,0,1-.053-.012.407.407,0,0,1-.051-.018.338.338,0,0,1-.048-.021.389.389,0,0,1-.043-.025l-.041-.029a.366.366,0,0,1-.036-.033l-.035-.036-.03-.041a.366.366,0,0,1-.026-.041c-.008-.015-.015-.03-.023-.046a.391.391,0,0,1-.018-.048c0-.016-.008-.033-.013-.049a.488.488,0,0,1-.007-.052c0-.018,0-.035,0-.053v-.117h.314v.1a.388.388,0,0,0,0,.042.17.17,0,0,0,.01.039.219.219,0,0,0,.015.038c.007.011.015.023.023.034a.125.125,0,0,0,.03.03.108.108,0,0,0,.038.021.16.16,0,0,0,.048.013.2.2,0,0,0,.054,0h.038a.331.331,0,0,1,.035,0l.028-.008a.091.091,0,0,0,.025-.01.084.084,0,0,0,.021-.013l.018-.015a.079.079,0,0,0,.016-.018.088.088,0,0,0,.013-.021.09.09,0,0,0,.012-.021.148.148,0,0,0,.008-.025.142.142,0,0,0,.007-.028c0-.008,0-.018,0-.028s0-.02,0-.031a.2.2,0,0,0,0-.033c0-.01,0-.021,0-.033v-.077a.291.291,0,0,1,0-.036c0-.013,0-.025,0-.035s0-.02,0-.029,0-.018,0-.026a.09.09,0,0,0-.007-.023.079.079,0,0,0-.007-.021.088.088,0,0,0-.008-.018.1.1,0,0,0-.012-.017.14.14,0,0,0-.013-.013.22.22,0,0,0-.031-.024l-.02-.012-.021-.011-.026-.012c-.008,0-.018-.008-.028-.011l-.223-.09a.753.753,0,0,1-.094-.044.7.7,0,0,1-.076-.051.4.4,0,0,1-.059-.057.5.5,0,0,1-.044-.064.558.558,0,0,1-.03-.074.573.573,0,0,1-.021-.081.74.74,0,0,1-.013-.09.919.919,0,0,1,0-.1c0-.02,0-.04,0-.061s0-.038.007-.058a.319.319,0,0,1,.01-.058l.015-.056a.36.36,0,0,1,.02-.054.336.336,0,0,1,.023-.049.44.44,0,0,1,.026-.046.5.5,0,0,1,.031-.041.373.373,0,0,1,.036-.039l.038-.035c.015-.01.03-.02.044-.028a.235.235,0,0,1,.048-.026.273.273,0,0,1,.053-.021.342.342,0,0,1,.056-.015.367.367,0,0,1,.062-.01c.021,0,.044,0,.067,0h.056l.056.008.051.013a.5.5,0,0,1,.051.018l.046.024.044.026a.3.3,0,0,1,.039.03c.013.01.025.021.038.033a.659.659,0,0,1,.061.076.448.448,0,0,1,.044.082.383.383,0,0,1,.026.087.413.413,0,0,1,.01.092v.153h-.314v-.07a.484.484,0,0,0,0-.051.223.223,0,0,0-.01-.049.239.239,0,0,0-.016-.044.249.249,0,0,0-.021-.042.148.148,0,0,0-.03-.033.11.11,0,0,0-.038-.024.223.223,0,0,0-.048-.015c-.016,0-.036,0-.056,0h-.03l-.028,0a.157.157,0,0,0-.046.02l-.02.012a.081.081,0,0,0-.016.016.113.113,0,0,0-.016.015.161.161,0,0,1-.013.018l-.01.021a.067.067,0,0,0-.01.021l-.008.023,0,.025c0,.008,0,.016,0,.026s0,.016,0,.024a.166.166,0,0,0,0,.028.158.158,0,0,0,0,.028v.031a.152.152,0,0,1,0,.028c0,.008,0,.016,0,.024s0,.017,0,.023a.112.112,0,0,0,0,.021c0,.006,0,.013,0,.018a.091.091,0,0,0,.007.02.146.146,0,0,0,.008.018l.01.015s.008.011.013.016l.015.013a.068.068,0,0,0,.016.013l.018.012.023.013.026.011.028.012.24.093.051.021.044.023a.277.277,0,0,1,.039.023.2.2,0,0,1,.035.026.232.232,0,0,1,.031.028c.01.01.018.02.026.029s.016.02.025.031l.02.035a.355.355,0,0,1,.015.038.307.307,0,0,1,.013.041.179.179,0,0,1,.01.043.369.369,0,0,1,.008.046c0,.015,0,.031,0,.048s0,.034,0,.052,0,.035,0,.054,0,.038,0,.059,0,.044,0,.067,0,.043-.007.064,0,.042-.008.062-.007.042-.012.061-.01.038-.016.058l-.02.052-.025.048c-.008.015-.018.03-.028.044s-.023.026-.036.04a.29.29,0,0,1-.039.036.472.472,0,0,1-.044.033l-.049.026c-.018.008-.036.015-.056.021a.355.355,0,0,1-.061.016l-.066.01c-.025,0-.048,0-.074,0S176.026,6547.024,176.006,6547.022Zm5.981-.008c-.016,0-.031,0-.048-.007s-.031,0-.046-.01a.3.3,0,0,1-.048-.015c-.015,0-.03-.012-.044-.018l-.043-.023a.327.327,0,0,1-.041-.028c-.013-.01-.025-.02-.038-.031a.325.325,0,0,1-.036-.034.378.378,0,0,1-.033-.038c-.01-.013-.018-.026-.028-.041l-.025-.047a.491.491,0,0,1-.02-.051.562.562,0,0,1-.015-.056c0-.02-.007-.04-.008-.061s0-.044,0-.067v-1.146c0-.023,0-.043,0-.064s0-.041.008-.061.008-.038.015-.056a.469.469,0,0,1,.02-.052c.008-.017.016-.033.025-.048l.028-.044a.471.471,0,0,1,.033-.04.3.3,0,0,1,.036-.036l.038-.031a.311.311,0,0,1,.041-.026c.013-.008.028-.015.043-.023a.423.423,0,0,1,.044-.018l.048-.015.046-.011a.394.394,0,0,1,.048,0,.365.365,0,0,1,.046,0c.016,0,.033,0,.048,0l.048,0,.046.012a.279.279,0,0,1,.046.015.414.414,0,0,1,.046.018.371.371,0,0,1,.043.021l.043.026a.314.314,0,0,1,.038.031.167.167,0,0,1,.035.034c.012.013.023.026.033.04s.018.03.028.044.016.031.023.048.015.034.021.052a.541.541,0,0,1,.013.056c0,.02.007.039.01.061s0,.041,0,.063v.11h-.311v-.11a.268.268,0,0,0,0-.052.337.337,0,0,0-.011-.044.125.125,0,0,0-.02-.038.169.169,0,0,0-.028-.031.253.253,0,0,0-.033-.023l-.035-.016-.038-.01a.179.179,0,0,0-.043,0,.166.166,0,0,0-.041,0,.222.222,0,0,0-.038.011.14.14,0,0,0-.036.017.334.334,0,0,0-.033.023.147.147,0,0,0-.026.031.158.158,0,0,0-.02.038.218.218,0,0,0-.011.046.263.263,0,0,0,0,.053v1.147a.279.279,0,0,0,0,.054.2.2,0,0,0,.011.044.134.134,0,0,0,.02.038.147.147,0,0,0,.026.031l.033.023a.215.215,0,0,0,.036.017.137.137,0,0,0,.038.01l.041,0a.182.182,0,0,0,.043,0,.154.154,0,0,0,.038-.01.24.24,0,0,0,.035-.017.211.211,0,0,0,.033-.023.156.156,0,0,0,.028-.031.168.168,0,0,0,.02-.038.314.314,0,0,0,.011-.046.268.268,0,0,0,0-.052v-.409H182v-.274l.557,0v.684c0,.023,0,.046,0,.067s0,.041-.01.059a.571.571,0,0,1-.013.058.494.494,0,0,1-.021.051.439.439,0,0,1-.023.047l-.028.043c-.01.013-.021.024-.033.038a.238.238,0,0,1-.035.035l-.038.031c-.015.01-.028.02-.043.028l-.043.024-.046.018-.046.015-.046.011-.048.007h-.094Zm-5.074-2.207h.532c.02,0,.039,0,.057.007l.056.01.051.015a.283.283,0,0,1,.048.02c.015.008.031.016.046.026a.453.453,0,0,1,.043.033.49.49,0,0,1,.041.039c.013.015.025.03.036.044s.021.031.031.048l.025.053a.566.566,0,0,1,.018.056.519.519,0,0,1,.013.063.452.452,0,0,1,.01.072c0,.026,0,.053.007.082s0,.061,0,.094,0,.048,0,.071,0,.044,0,.064,0,.041,0,.059a.411.411,0,0,1-.008.053.254.254,0,0,1-.01.051c0,.017-.01.033-.016.049a.387.387,0,0,1-.02.048l-.025.044c-.012.018-.023.034-.035.049a.578.578,0,0,1-.041.046c-.015.013-.03.026-.046.039a.488.488,0,0,1-.051.033.494.494,0,0,1-.058.026.476.476,0,0,1-.066.018.62.62,0,0,1-.076.013l-.082,0-.161,0v.851h-.312Zm.312,1.034h.151a.432.432,0,0,0,.044,0,.266.266,0,0,0,.039-.007l.035-.006c.01,0,.02-.008.028-.013a.086.086,0,0,0,.025-.017.243.243,0,0,0,.021-.017.264.264,0,0,0,.018-.021.2.2,0,0,0,.013-.023.169.169,0,0,0,.012-.025c0-.008,0-.017.008-.026s0-.02.007-.029,0-.021,0-.033,0-.023,0-.034,0-.025,0-.036v-.04a.48.48,0,0,0,0-.079v-.034a.283.283,0,0,0,0-.038v-.034c0-.012,0-.023,0-.033l0-.031c0-.01,0-.021-.008-.029s-.008-.018-.012-.028a.118.118,0,0,0-.015-.023.077.077,0,0,0-.016-.021.12.12,0,0,0-.02-.02.113.113,0,0,0-.023-.013.115.115,0,0,0-.026-.013.2.2,0,0,0-.033-.008l-.038,0-.044,0h-.163Zm.992-1.032.5,0a.676.676,0,0,1,.242.038.451.451,0,0,1,.171.12.523.523,0,0,1,.1.2,1.014,1.014,0,0,1,.035.279c0,.033,0,.064,0,.094s-.007.059-.012.085-.012.054-.018.079-.016.048-.026.071a.344.344,0,0,1-.036.064.3.3,0,0,1-.046.058.453.453,0,0,1-.058.051.461.461,0,0,1-.071.046l.337.992-.33,0-.291-.929h-.187v.93h-.312Zm.312.292v.678h.177a.326.326,0,0,0,.039,0c.013,0,.025,0,.036,0a.084.084,0,0,0,.03-.007l.028-.01a.184.184,0,0,0,.023-.013l.02-.015c.007-.007.013-.012.018-.018s.01-.013.015-.021a.093.093,0,0,0,.012-.021c0-.008.007-.016.01-.026a.149.149,0,0,0,.007-.026.189.189,0,0,0,.007-.031c0-.01,0-.021,0-.031s0-.025,0-.036,0-.025,0-.038v-.081c0-.013,0-.024,0-.036s0-.024,0-.034,0-.023,0-.035a.208.208,0,0,0-.007-.03.142.142,0,0,0-.008-.028.129.129,0,0,0-.01-.026.145.145,0,0,0-.048-.061.323.323,0,0,0-.049-.028.386.386,0,0,0-.136-.02Zm1.64-.292.3,0,.47,1.31h.007V6544.8h.311v2.176h-.292l-.477-1.306h-.007v1.308h-.311Zm-.624-.005h.312v2.177h-.312Zm-18.54-2.031,1.564-.419a8.851,8.851,0,0,0,1.655,3.015l-1.308,1.3A9.871,9.871,0,0,1,161.006,6542.773Zm-6.683,2.647a5.924,5.924,0,0,0,1.543-3.066l1.645.368a9.149,9.149,0,0,1-1.858,3.934Zm27.209-1.178-3.477-2.728a1.042,1.042,0,0,0-.1-.074c-.033-.023-.067-.042-.1-.061s-.066-.033-.1-.048a.543.543,0,0,0-.092-.035.734.734,0,0,0-.084-.018l-.082-.013-.079-.006c-.026,0-.053,0-.077,0a1.15,1.15,0,0,0-.375.056,1.263,1.263,0,0,0-.168.075,1.121,1.121,0,0,0-.156.1.956.956,0,0,0-.131.138.836.836,0,0,0-.094.165.885.885,0,0,0-.059.19,1.288,1.288,0,0,0-.023.217,1.075,1.075,0,0,0,.016.2.931.931,0,0,0,.051.179.983.983,0,0,0,.084.161,1,1,0,0,0,.117.146,1.066,1.066,0,0,0,.148.125.991.991,0,0,0,.176.1,1.471,1.471,0,0,0,.2.069,1.4,1.4,0,0,0,.23.042v.986a2.9,2.9,0,0,1-.424-.054,2.255,2.255,0,0,1-.384-.117,2.129,2.129,0,0,1-.347-.178,2.153,2.153,0,0,1-.309-.242,2.018,2.018,0,0,1-.248-.291,1.754,1.754,0,0,1-.177-.32,1.788,1.788,0,0,1-.108-.352,1.932,1.932,0,0,1-.041-.383,2.467,2.467,0,0,1,.041-.422,1.942,1.942,0,0,1,.112-.383,1.734,1.734,0,0,1,.181-.337,1.783,1.783,0,0,1,.253-.3,1.91,1.91,0,0,1,.3-.243,1.8,1.8,0,0,1,.343-.176,2,2,0,0,1,.381-.1,2.619,2.619,0,0,1,.419-.036,2.062,2.062,0,0,1,.342.03,1.917,1.917,0,0,1,.322.081,1.9,1.9,0,0,1,.3.133,2.028,2.028,0,0,1,.283.184l2.869,2.243v-2.635l1.014.008v3.935Zm-17.069-4.381c2.565-.95,3.546-1.84,4.067-2.534h2.034a8.849,8.849,0,0,0,4.016,2.5l-.879,1.717a10.7,10.7,0,0,1-1.451-.727v.634H166.8v-.593a7.226,7.226,0,0,1-1.492.736Zm3.679.1h2.81a10.529,10.529,0,0,1-1.41-1.267A8.207,8.207,0,0,1,168.142,6539.963Zm9.22-.547a2.924,2.924,0,0,1-.463-.044,2.061,2.061,0,0,1-.406-.118,1.72,1.72,0,0,1-.35-.19,1.68,1.68,0,0,1-.294-.266,2.04,2.04,0,0,1-.228-.3,1.864,1.864,0,0,1-.263-.674,2.008,2.008,0,0,1-.033-.376,2.134,2.134,0,0,1,.033-.388,1.845,1.845,0,0,1,.1-.356,1.918,1.918,0,0,1,.394-.621,1.655,1.655,0,0,1,.294-.251,1.843,1.843,0,0,1,.35-.181,2.338,2.338,0,0,1,.408-.112,2.934,2.934,0,0,1,.463-.041l3.133.015a3.076,3.076,0,0,1,.462.046,2.128,2.128,0,0,1,.406.115,1.777,1.777,0,0,1,.35.186,1.589,1.589,0,0,1,.294.253,2.059,2.059,0,0,1,.232.3,1.91,1.91,0,0,1,.166.327,2.044,2.044,0,0,1,.1.358,2.3,2.3,0,0,1,.038.389,2.135,2.135,0,0,1-.038.375,1.911,1.911,0,0,1-.1.35,1.939,1.939,0,0,1-.166.322,2.01,2.01,0,0,1-.23.294,1.787,1.787,0,0,1-.294.263,1.647,1.647,0,0,1-.348.188,2.239,2.239,0,0,1-.406.115,2.71,2.71,0,0,1-.462.038Zm-.406-2.861a.927.927,0,0,0-.337.184.8.8,0,0,0-.207.3,1.181,1.181,0,0,0-.076.416,1.193,1.193,0,0,0,.076.417.8.8,0,0,0,.207.3.9.9,0,0,0,.337.184,1.6,1.6,0,0,0,.47.071l3.017.015a1.675,1.675,0,0,0,.473-.065.887.887,0,0,0,.34-.183.758.758,0,0,0,.205-.3,1.236,1.236,0,0,0,0-.833.768.768,0,0,0-.205-.3.92.92,0,0,0-.34-.187,1.658,1.658,0,0,0-.473-.074l-3.017-.015A1.725,1.725,0,0,0,176.956,6536.555Zm-21.846,2.744v-1.625h8.378v1.625Zm-3.529-3.439v-5.14h-.49v.45a8.826,8.826,0,0,1-1.2,4.689l-1.308-1.052-.112.214a8.414,8.414,0,0,1-.869-1.083v1.921h-1.522v-1.8a6.846,6.846,0,0,1-1.441,1.378l-.644-1.768a7.45,7.45,0,0,0,1.482-1.165H144.3v-1.451h1.789v-.49h-1.86v-1.482h.879a8.259,8.259,0,0,0-.184-.908h-.511v-1.482h1.676v-.593h1.572v.593h1.564v1.482h-.491c-.061.315-.071.378-.2.908h.736v1.482h-1.656v.49H149.2v1.451h-1.061a6.648,6.648,0,0,0,1.02.993,6.959,6.959,0,0,0,.37-2.34v-4.529a11.857,11.857,0,0,0,3.76-.632l.633,1.6a9.947,9.947,0,0,1-2.829.562v.891h2.829v1.665h-.734v5.14Zm-5.048-6.775h.593a8.589,8.589,0,0,0,.163-.908h-.928C146.432,6528.493,146.514,6528.974,146.533,6529.085Zm25.95,6.745v-.368H171.31v.368h-1.586v-5.038h4.364v5.038Zm-1.173-1.9h1.173v-1.614H171.31Zm-6.336,1.9v-5.038h4.188v5.017h-1.6v-.347h-.991v.368Zm1.594-1.9h.991v-1.614h-.991Zm-5.358,1.88-.163-.766h-4.1v-3.035h4.7v2.064h.235c.265,0,.265-.131.265-.308v-2.156c-.092.063-.163.1-.55.1h-1.554c-.347,0-.725-.113-.725-.613v-1.114h-.389c-.09.991-.715,1.533-2.134,2.063l-.337-.644v4.4h-1.625v-7.143h1.8a3.06,3.06,0,0,0-.143-.6h-2.023v-1.449h3.994v-.491h1.727v.491h3.965v1.449h-1.962a4.419,4.419,0,0,1-.194.6h1.778v6.193c0,.3,0,.95-.94.95Zm-2.788-2.033h1.757v-.593h-1.757Zm-1.962-3.055a1.428,1.428,0,0,0,1.052-.736H156.46Zm4.22-.256c0,.194.112.2.2.2.481,0,.573,0,.613-.5l.654.153v-.336h-1.471Zm-2.268-1.8h1.8a4.829,4.829,0,0,0,.153-.6h-2.115C158.279,6528.167,158.359,6528.422,158.412,6528.667Zm23.121,6.05-3.477-2.7c-.035-.026-.069-.051-.1-.072s-.067-.042-.1-.061a1.041,1.041,0,0,0-.1-.046.541.541,0,0,0-.092-.034l-.084-.018-.082-.012c-.026,0-.053,0-.079-.006l-.077,0a1.188,1.188,0,0,0-.194.017.828.828,0,0,0-.181.044,1.1,1.1,0,0,0-.324.181.928.928,0,0,0-.131.138.833.833,0,0,0-.094.166.889.889,0,0,0-.059.191,1.272,1.272,0,0,0-.023.217,1.08,1.08,0,0,0,.016.2.953.953,0,0,0,.051.178.941.941,0,0,0,.084.161.962.962,0,0,0,.117.145,1.238,1.238,0,0,0,.148.126,1.074,1.074,0,0,0,.176.1,1.3,1.3,0,0,0,.2.069,1.993,1.993,0,0,0,.23.041v.984a2.657,2.657,0,0,1-.424-.051,2.249,2.249,0,0,1-.384-.113,2.037,2.037,0,0,1-.656-.416,1.943,1.943,0,0,1-.248-.287,1.794,1.794,0,0,1-.286-.67,1.927,1.927,0,0,1-.041-.383,2.511,2.511,0,0,1,.041-.424,1.963,1.963,0,0,1,.112-.381,1.775,1.775,0,0,1,.181-.34,1.866,1.866,0,0,1,.253-.3,1.962,1.962,0,0,1,.3-.247,1.858,1.858,0,0,1,.343-.177,1.974,1.974,0,0,1,.381-.108,2.457,2.457,0,0,1,.419-.038,2.118,2.118,0,0,1,.342.026,1.824,1.824,0,0,1,.322.079,1.882,1.882,0,0,1,.3.129,2.21,2.21,0,0,1,.283.183l2.869,2.225v-2.637l1.014,0v3.935Zm-15.608-4.445v-3.863h7.225v3.863Zm1.655-1.41h3.935v-.991h-3.935Zm9.359,1.035a2.2,2.2,0,0,1-.384-.112,2.076,2.076,0,0,1-.656-.414,1.988,1.988,0,0,1-.248-.286,1.753,1.753,0,0,1-.286-.67,1.928,1.928,0,0,1-.041-.381,2.471,2.471,0,0,1,.041-.424,1.942,1.942,0,0,1,.112-.383,1.719,1.719,0,0,1,.181-.34,1.816,1.816,0,0,1,.253-.3,2,2,0,0,1,.3-.248,1.889,1.889,0,0,1,.343-.177,1.91,1.91,0,0,1,.381-.11,2.456,2.456,0,0,1,.419-.039,2.12,2.12,0,0,1,.342.024,2.007,2.007,0,0,1,.322.077,1.884,1.884,0,0,1,.3.13,2,2,0,0,1,.283.181l2.869,2.215V6526h1.014v3.936h-.956l-3.477-2.69a1.021,1.021,0,0,0-.1-.072c-.033-.023-.067-.042-.1-.061s-.066-.033-.1-.046-.061-.024-.092-.034-.056-.012-.084-.017-.056-.008-.082-.011-.053-.005-.079-.007a.6.6,0,0,0-.077,0,1.045,1.045,0,0,0-.194.017,1.085,1.085,0,0,0-.181.044,1.11,1.11,0,0,0-.168.077,1.132,1.132,0,0,0-.156.1.991.991,0,0,0-.131.14.833.833,0,0,0-.094.166.872.872,0,0,0-.059.189,1.317,1.317,0,0,0-.023.219,1.08,1.08,0,0,0,.016.2.916.916,0,0,0,.135.339.878.878,0,0,0,.117.143,1.048,1.048,0,0,0,.148.126,1.2,1.2,0,0,0,.176.1,1.469,1.469,0,0,0,.2.067,1.894,1.894,0,0,0,.23.041v.984A2.905,2.905,0,0,1,176.938,6529.9Z" transform="translate(-144 -6526)" fill="#fff"/>
</svg>
