<svg xmlns="http://www.w3.org/2000/svg" viewBox="0 0 137.31 103.77"><g id="Layer_2" data-name="Layer 2"><g id="Layer_1-2" data-name="Layer 1"><path d="M120.64,17.8H118.8l1.87-13.92a3.2,3.2,0,0,0-.94-2.71A4.06,4.06,0,0,0,116.83,0H3.87A3.94,3.94,0,0,0,.4,1.92,3.18,3.18,0,0,0,.79,5.56L29.91,39.87l8.21,60.85a3.74,3.74,0,0,0,3.84,3h61.8a3.76,3.76,0,0,0,3.85-3l4.1-30.42h8.93c9.19,0,16.67-6.69,16.67-14.91V32.71C137.31,24.48,129.83,17.8,120.64,17.8ZM11.67,6.92H27.73l3,22.5Zm88.66,89.92H45.71L33.58,6.92h78.88l-7.81,57.87c0,.2-.06.41-.08.61ZM127,55.39c0,3.13-2.85,5.68-6.35,5.68H113l4.59-34h3.09c3.5,0,6.35,2.55,6.35,5.68Zm-27.31-14a1.09,1.09,0,0,1,.32.91L93.69,89a1.25,1.25,0,0,1-1.28,1H53.31A1.25,1.25,0,0,1,52,89l-.93-5.43H63.23a3.19,3.19,0,1,0,0-6.35h-13l-1.18-8.72H63.23a3.19,3.19,0,1,0,0-6.35h-15L47,53.42h16.2a3.19,3.19,0,1,0,0-6.34H46.17l-.44-4.8a1.09,1.09,0,0,1,.32-.91A1.37,1.37,0,0,1,47,41H98.72A1.39,1.39,0,0,1,99.68,41.37ZM63.23,34.74H45.37a3.69,3.69,0,0,1-3.87-3.46,3.69,3.69,0,0,1,3.87-3.46H63.23a3.69,3.69,0,0,1,3.87,3.46A3.69,3.69,0,0,1,63.23,34.74ZM41.5,18.61a3.69,3.69,0,0,1,3.87-3.46H63.23a3.69,3.69,0,0,1,3.87,3.46,3.69,3.69,0,0,1-3.87,3.47H45.37A3.69,3.69,0,0,1,41.5,18.61Z" fill="currentColor"/></g></g></svg>
