<?xml version="1.0" encoding="utf-8"?>
<!-- Generator: Adobe Illustrator 25.3.1, SVG Export Plug-In . SVG Version: 6.00 Build 0)  -->
<svg version="1.1" id="Layer_1" xmlns="http://www.w3.org/2000/svg" xmlns:xlink="http://www.w3.org/1999/xlink" x="0px" y="0px"
	 viewBox="0 0 78 78" style="enable-background:new 0 0 78 78;" xml:space="preserve">
<style type="text/css">
	.st0{fill:#F48527;}
</style>
<path class="st0" d="M14.3,0L0,14.3V7.3L7.3,0H14.3z M22.8,0L0,22.8v7.1L29.9,0H22.8z M38.4,0L0,38.4v7.1L45.5,0H38.4z M53.9,0
	L0,53.9V61L61,0H53.9z M69.5,0L0,69.5v7.1L76.6,0H69.5z M7,78h7.1L78,14.1V7L7,78z M29.7,78L78,29.7v-7.1L22.6,78H29.7z M45.2,78
	L78,45.2v-7.1L38.2,78H45.2z M60.8,78L78,60.8v-7.1L53.7,78H60.8z M76.3,78l1.7-1.7v-7.1L69.3,78H76.3z"/>
</svg>
